<?xml version="1.0" encoding="UTF-8" standalone="no"?>
<!DOCTYPE svg PUBLIC "-//W3C//DTD SVG 1.1//EN" "http://www.w3.org/Graphics/SVG/1.1/DTD/svg11.dtd">
<svg xmlns="http://www.w3.org/2000/svg" version="1.1" viewBox="0 0 512 512">
<g stroke-width="2.00" fill="none" stroke-linecap="butt">
<path stroke="#e569ff" vector-effect="non-scaling-stroke" d="
  M 451.50 90.96
  L 451.74 92.36
  Q 451.84 93.01 451.20 92.91
  Q 450.55 92.81 450.38 93.37
  Q 450.19 94.00 449.53 94.00
  L 426.46 94.00
  Q 425.95 94.00 425.55 94.31
  Q 425.09 94.67 424.47 94.69
  Q 423.66 94.72 424.17 95.06
  Q 424.47 95.26 424.52 95.59
  Q 424.63 96.32 424.15 95.76
  Q 423.60 95.10 422.79 95.00"
/>
<path stroke="#e569ff" vector-effect="non-scaling-stroke" d="
  M 90.75 93.29
  Q 89.50 92.36 88.77 94.00
  Q 88.67 94.22 88.58 93.99
  Q 88.53 93.84 88.49 93.67
  Q 88.44 93.49 88.29 93.59
  C 86.35 94.91 66.93 94.00 63.22 94.01
  Q 62.65 94.02 62.19 93.69
  Q 61.18 92.97 60.17 93.79
  Q 59.36 94.46 59.75 93.49
  Q 59.87 93.21 60.10 93.01
  Q 60.63 92.57 60.01 92.27
  Q 59.76 92.15 59.50 92.21"
/>
<path stroke="#ce59ff" vector-effect="non-scaling-stroke" d="
  M 293.71 155.00
  C 292.24 155.38 290.90 156.07 289.37 156.05
  C 285.46 156.02 270.97 154.96 268.34 156.25
  Q 267.94 156.45 267.59 156.18
  Q 266.72 155.50 265.75 156.29"
/>
<path stroke="#ce59ff" vector-effect="non-scaling-stroke" d="
  M 174.00 156.54
  Q 173.57 155.59 172.60 155.32
  Q 172.10 155.18 171.69 155.49
  C 169.82 156.88 152.40 155.99 148.94 155.96
  Q 148.64 155.96 148.44 156.17
  Q 148.24 156.38 147.86 156.27
  Q 147.28 156.09 147.50 155.53
  Q 148.08 153.99 147.46 152.75"
/>
<path stroke="#bc4cff" vector-effect="non-scaling-stroke" d="
  M 299.25 223.04
  C 293.54 220.90 284.26 222.00 278.01 221.96
  C 276.63 221.96 275.72 221.20 274.50 220.71"
/>
<path stroke="#bc4cff" vector-effect="non-scaling-stroke" d="
  M 168.46 226.25
  Q 168.04 226.72 168.23 227.39
  Q 168.39 227.96 167.79 227.97
  L 144.96 228.05
  Q 144.60 228.05 144.28 227.90
  L 143.87 227.70
  Q 143.47 227.51 143.20 227.86
  Q 142.95 228.18 142.54 228.25"
/>
<path stroke="#bc4cff" vector-effect="non-scaling-stroke" d="
  M 378.00 235.71
  Q 377.33 235.50 376.93 235.79
  Q 376.52 236.09 376.68 236.57
  Q 377.15 238.06 377.00 239.70
  Q 376.96 240.15 376.75 239.75
  L 376.60 239.48
  Q 376.30 238.92 376.16 239.54
  L 375.04 244.38
  Q 374.90 245.03 374.23 245.03
  L 357.14 244.99
  Q 356.69 244.99 356.33 245.25
  Q 355.21 246.06 355.20 247.45
  Q 355.20 248.29 355.07 247.49
  L 354.70 245.30
  Q 354.69 245.25 354.66 245.29
  L 354.48 245.49
  Q 354.22 245.80 354.24 245.40
  Q 354.44 241.51 354.14 237.64
  Q 353.97 235.30 353.96 237.64
  L 353.79 270.75"
/>
<path stroke="#a83fff" vector-effect="non-scaling-stroke" d="
  M 352.25 312.21
  L 351.77 307.45
  Q 351.73 307.06 351.33 307.06
  L 330.78 306.98
  Q 330.25 306.97 329.97 307.42
  L 328.29 310.00"
/>
<path stroke="#a83fff" vector-effect="non-scaling-stroke" d="
  M 113.21 302.50
  Q 112.75 302.44 112.72 302.00
  Q 112.67 301.47 112.41 301.92
  L 110.91 304.56
  Q 110.66 305.00 110.15 305.00
  L 91.27 305.00
  Q 90.74 305.00 90.55 305.50
  L 90.21 306.39
  Q 89.91 307.18 89.66 306.37
  L 89.13 304.72
  Q 89.00 304.30 88.84 304.71
  Q 88.79 304.85 88.77 305.01
  Q 88.71 305.40 88.54 305.05
  Q 88.44 304.84 88.25 304.71"
/>
<path stroke="#ce59ff" vector-effect="non-scaling-stroke" d="
  M 483.32 138.16
  L 480.64 138.82
  Q 480.00 138.98 480.00 138.32
  L 480.00 136.67
  Q 480.00 136.20 479.60 136.45
  L 479.11 136.78
  Q 478.78 136.99 478.38 136.99
  L 455.04 137.00"
/>
<path stroke="#ce59ff" vector-effect="non-scaling-stroke" d="
  M 55.21 140.00
  Q 54.70 139.60 55.07 139.00
  Q 57.26 135.42 54.73 138.49
  Q 54.23 139.09 53.82 139.77
  Q 53.61 140.13 53.39 139.77
  L 53.15 139.36
  Q 52.96 139.04 52.59 139.04
  L 31.00 138.96
  Q 30.18 138.96 30.51 138.21
  Q 30.77 137.64 30.80 136.96
  Q 30.84 136.17 30.47 136.87
  Q 30.28 137.24 29.96 137.48
  Q 29.57 137.78 29.75 137.32
  Q 29.99 136.72 29.54 136.50"
/>
<path stroke="#bc4cff" vector-effect="non-scaling-stroke" d="
  M 511.04 235.50
  Q 511.08 235.81 510.97 236.04
  Q 510.88 236.23 510.85 236.02
  L 509.99 228.02
  Q 509.93 227.47 509.52 227.84
  C 508.50 228.79 507.33 227.98 506.41 227.97
  Q 500.59 227.95 494.81 228.59
  C 492.64 228.83 490.72 227.94 488.40 228.34
  Q 487.91 228.43 487.77 227.95
  L 487.47 227.01
  Q 487.34 226.58 487.12 226.98
  L 486.29 228.50"
/>
<path stroke="#bc4cff" vector-effect="non-scaling-stroke" d="
  M 25.71 228.75
  C 24.25 226.95 23.91 230.23 23.96 230.34
  Q 24.70 231.98 22.81 231.98
  L 4.06 232.01
  Q 3.62 232.01 3.59 231.58
  Q 3.44 229.74 2.62 228.44
  Q 2.36 228.04 2.30 228.51
  L 1.95 231.00
  Q 1.82 231.96 1.78 230.98
  Q 1.75 230.31 1.46 229.75"
/>
<path stroke="#a83fff" vector-effect="non-scaling-stroke" d="
  M 503.21 322.50
  Q 502.59 321.64 503.04 320.63
  Q 503.22 320.24 502.86 320.00
  Q 502.66 319.86 502.61 319.57
  Q 502.51 319.05 501.99 319.05
  C 497.62 319.03 482.48 320.08 479.54 317.75"
/>
<path stroke="#a83fff" vector-effect="non-scaling-stroke" d="
  M 33.21 320.75
  L 32.64 320.16
  Q 32.22 319.72 32.35 320.32
  L 33.57 325.77
  Q 33.64 326.07 33.42 326.29
  L 33.13 326.58
  Q 32.65 327.05 32.32 326.47
  L 31.77 325.51
  Q 31.47 325.00 30.87 325.00
  L 12.63 325.00
  Q 12.13 325.00 11.77 324.65
  L 11.18 324.06
  Q 10.70 323.57 10.61 324.25
  Q 10.47 325.41 9.79 326.25"
/>
<path stroke="#9431ff" vector-effect="non-scaling-stroke" d="
  M 454.50 417.54
  C 452.10 415.94 431.19 416.95 426.35 416.88
  A 0.89 0.89 0.0 0 1 425.91 415.22
  Q 427.28 414.40 427.46 412.00"
/>
<path stroke="#9431ff" vector-effect="non-scaling-stroke" d="
  M 82.22 409.47
  L 83.01 412.17
  Q 83.12 412.53 83.38 412.78
  L 86.34 415.65
  A 0.78 0.78 0.0 0 1 85.80 416.99
  L 57.04 417.00"
/>
</g>
<path fill="#f172ff" d="
  M 250.81 0.00
  L 261.06 0.00
  C 335.45 1.92 403.30 34.07 451.50 90.96
  L 451.74 92.36
  Q 451.84 93.01 451.20 92.91
  Q 450.55 92.81 450.38 93.37
  Q 450.19 94.00 449.53 94.00
  L 426.46 94.00
  Q 425.95 94.00 425.55 94.31
  Q 425.09 94.67 424.47 94.69
  Q 423.66 94.72 424.17 95.06
  Q 424.47 95.26 424.52 95.59
  Q 424.63 96.32 424.15 95.76
  Q 423.60 95.10 422.79 95.00
  C 331.07 0.38 183.25 1.16 90.75 93.29
  Q 89.50 92.36 88.77 94.00
  Q 88.67 94.22 88.58 93.99
  Q 88.53 93.84 88.49 93.67
  Q 88.44 93.49 88.29 93.59
  C 86.35 94.91 66.93 94.00 63.22 94.01
  Q 62.65 94.02 62.19 93.69
  Q 61.18 92.97 60.17 93.79
  Q 59.36 94.46 59.75 93.49
  Q 59.87 93.21 60.10 93.01
  Q 60.63 92.57 60.01 92.27
  Q 59.76 92.15 59.50 92.21
  C 106.90 34.80 176.36 1.94 250.81 0.00
  Z"
/>
<path fill="#d860ff" d="
  M 451.50 90.96
  Q 470.20 112.68 483.32 138.16
  L 480.64 138.82
  Q 480.00 138.98 480.00 138.32
  L 480.00 136.67
  Q 480.00 136.20 479.60 136.45
  L 479.11 136.78
  Q 478.78 136.99 478.38 136.99
  L 455.04 137.00
  Q 441.25 114.21 422.79 95.00
  Q 423.60 95.10 424.15 95.76
  Q 424.63 96.32 424.52 95.59
  Q 424.47 95.26 424.17 95.06
  Q 423.66 94.72 424.47 94.69
  Q 425.09 94.67 425.55 94.31
  Q 425.95 94.00 426.46 94.00
  L 449.53 94.00
  Q 450.19 94.00 450.38 93.37
  Q 450.55 92.81 451.20 92.91
  Q 451.84 93.01 451.74 92.36
  L 451.50 90.96
  Z"
/>
<path fill="#d860ff" d="
  M 59.50 92.21
  Q 59.76 92.15 60.01 92.27
  Q 60.63 92.57 60.10 93.01
  Q 59.87 93.21 59.75 93.49
  Q 59.36 94.46 60.17 93.79
  Q 61.18 92.97 62.19 93.69
  Q 62.65 94.02 63.22 94.01
  C 66.93 94.00 86.35 94.91 88.29 93.59
  Q 88.44 93.49 88.49 93.67
  Q 88.53 93.84 88.58 93.99
  Q 88.67 94.22 88.77 94.00
  Q 89.50 92.36 90.75 93.29
  Q 70.13 114.48 55.21 140.00
  Q 54.70 139.60 55.07 139.00
  Q 57.26 135.42 54.73 138.49
  Q 54.23 139.09 53.82 139.77
  Q 53.61 140.13 53.39 139.77
  L 53.15 139.36
  Q 52.96 139.04 52.59 139.04
  L 31.00 138.96
  Q 30.18 138.96 30.51 138.21
  Q 30.77 137.64 30.80 136.96
  Q 30.84 136.17 30.47 136.87
  Q 30.28 137.24 29.96 137.48
  Q 29.57 137.78 29.75 137.32
  Q 29.99 136.72 29.54 136.50
  Q 42.02 112.66 59.50 92.21
  Z"
/>
<path fill="#d860ff" d="
  M 293.71 155.00
  C 292.24 155.38 290.90 156.07 289.37 156.05
  C 285.46 156.02 270.97 154.96 268.34 156.25
  Q 267.94 156.45 267.59 156.18
  Q 266.72 155.50 265.75 156.29
  C 240.72 127.97 198.91 128.27 174.00 156.54
  Q 173.57 155.59 172.60 155.32
  Q 172.10 155.18 171.69 155.49
  C 169.82 156.88 152.40 155.99 148.94 155.96
  Q 148.64 155.96 148.44 156.17
  Q 148.24 156.38 147.86 156.27
  Q 147.28 156.09 147.50 155.53
  Q 148.08 153.99 147.46 152.75
  C 181.27 95.88 261.97 98.25 293.71 155.00
  Z"
/>
<path fill="#c351ff" d="
  M 483.32 138.16
  Q 507.13 183.96 511.04 235.50
  Q 511.08 235.81 510.97 236.04
  Q 510.88 236.23 510.85 236.02
  L 509.99 228.02
  Q 509.93 227.47 509.52 227.84
  C 508.50 228.79 507.33 227.98 506.41 227.97
  Q 500.59 227.95 494.81 228.59
  C 492.64 228.83 490.72 227.94 488.40 228.34
  Q 487.91 228.43 487.77 227.95
  L 487.47 227.01
  Q 487.34 226.58 487.12 226.98
  L 486.29 228.50
  Q 480.32 179.40 455.04 137.00
  L 478.38 136.99
  Q 478.78 136.99 479.11 136.78
  L 479.60 136.45
  Q 480.00 136.20 480.00 136.67
  L 480.00 138.32
  Q 480.00 138.98 480.64 138.82
  L 483.32 138.16
  Z"
/>
<path fill="#c351ff" d="
  M 29.54 136.50
  Q 29.99 136.72 29.75 137.32
  Q 29.57 137.78 29.96 137.48
  Q 30.28 137.24 30.47 136.87
  Q 30.84 136.17 30.80 136.96
  Q 30.77 137.64 30.51 138.21
  Q 30.18 138.96 31.00 138.96
  L 52.59 139.04
  Q 52.96 139.04 53.15 139.36
  L 53.39 139.77
  Q 53.61 140.13 53.82 139.77
  Q 54.23 139.09 54.73 138.49
  Q 57.26 135.42 55.07 139.00
  Q 54.70 139.60 55.21 140.00
  Q 31.34 181.29 25.71 228.75
  C 24.25 226.95 23.91 230.23 23.96 230.34
  Q 24.70 231.98 22.81 231.98
  L 4.06 232.01
  Q 3.62 232.01 3.59 231.58
  Q 3.44 229.74 2.62 228.44
  Q 2.36 228.04 2.30 228.51
  L 1.95 231.00
  Q 1.82 231.96 1.78 230.98
  Q 1.75 230.31 1.46 229.75
  Q 6.34 180.32 29.54 136.50
  Z"
/>
<path fill="#c351ff" d="
  M 147.46 152.75
  Q 148.08 153.99 147.50 155.53
  Q 147.28 156.09 147.86 156.27
  Q 148.24 156.38 148.44 156.17
  Q 148.64 155.96 148.94 155.96
  C 152.40 155.99 169.82 156.88 171.69 155.49
  Q 172.10 155.18 172.60 155.32
  Q 173.57 155.59 174.00 156.54
  C 157.51 176.64 155.08 203.82 168.46 226.25
  Q 168.04 226.72 168.23 227.39
  Q 168.39 227.96 167.79 227.97
  L 144.96 228.05
  Q 144.60 228.05 144.28 227.90
  L 143.87 227.70
  Q 143.47 227.51 143.20 227.86
  Q 142.95 228.18 142.54 228.25
  Q 126.95 189.14 147.46 152.75
  Z"
/>
<path fill="#c351ff" d="
  M 293.71 155.00
  Q 311.21 187.66 299.25 223.04
  C 293.54 220.90 284.26 222.00 278.01 221.96
  C 276.63 221.96 275.72 221.20 274.50 220.71
  Q 289.04 185.59 265.75 156.29
  Q 266.72 155.50 267.59 156.18
  Q 267.94 156.45 268.34 156.25
  C 270.97 154.96 285.46 156.02 289.37 156.05
  C 290.90 156.07 292.24 155.38 293.71 155.00
  Z"
/>
<path fill="#c351ff" d="
  M 378.00 235.71
  Q 377.33 235.50 376.93 235.79
  Q 376.52 236.09 376.68 236.57
  Q 377.15 238.06 377.00 239.70
  Q 376.96 240.15 376.75 239.75
  L 376.60 239.48
  Q 376.30 238.92 376.16 239.54
  L 375.04 244.38
  Q 374.90 245.03 374.23 245.03
  L 357.14 244.99
  Q 356.69 244.99 356.33 245.25
  Q 355.21 246.06 355.20 247.45
  Q 355.20 248.29 355.07 247.49
  L 354.70 245.30
  Q 354.69 245.25 354.66 245.29
  L 354.48 245.49
  Q 354.22 245.80 354.24 245.40
  Q 354.44 241.51 354.14 237.64
  Q 353.97 235.30 353.96 237.64
  L 353.79 270.75
  L 353.76 236.17
  A 0.41 0.40 90.0 0 0 353.36 235.76
  Q 338.04 235.73 322.67 235.76
  Q 316.63 235.77 313.66 234.40
  C 303.95 229.92 304.95 215.70 315.21 212.41
  Q 317.28 211.75 321.88 211.75
  Q 337.57 211.75 353.34 211.75
  A 0.41 0.40 -0.0 0 0 353.75 211.35
  Q 353.75 195.40 353.75 179.38
  Q 353.75 174.20 355.08 171.49
  C 359.76 162.01 373.61 163.14 376.97 173.15
  Q 377.73 175.42 377.73 180.54
  Q 377.75 195.88 377.75 211.21
  Q 377.75 211.72 378.27 211.72
  Q 395.17 211.78 411.99 211.82
  C 425.79 211.85 429.28 230.56 416.64 234.98
  Q 414.58 235.70 409.63 235.72
  Q 393.82 235.81 378.00 235.71
  Z"
/>
<path fill="#b447ff" d="
  M 299.25 223.04
  C 285.49 264.96 239.03 288.07 197.54 276.41
  C 172.63 269.41 153.12 252.00 142.54 228.25
  Q 142.95 228.18 143.20 227.86
  Q 143.47 227.51 143.87 227.70
  L 144.28 227.90
  Q 144.60 228.05 144.96 228.05
  L 167.79 227.97
  Q 168.39 227.96 168.23 227.39
  Q 168.04 226.72 168.46 226.25
  C 193.96 267.98 253.14 263.79 274.50 220.71
  C 275.72 221.20 276.63 221.96 278.01 221.96
  C 284.26 222.00 293.54 220.90 299.25 223.04
  Z"
/>
<path fill="#b447ff" d="
  M 511.04 235.50
  L 512.00 250.81
  L 512.00 261.56
  Q 511.16 292.56 503.21 322.50
  Q 502.59 321.64 503.04 320.63
  Q 503.22 320.24 502.86 320.00
  Q 502.66 319.86 502.61 319.57
  Q 502.51 319.05 501.99 319.05
  C 497.62 319.03 482.48 320.08 479.54 317.75
  Q 491.67 273.82 486.29 228.50
  L 487.12 226.98
  Q 487.34 226.58 487.47 227.01
  L 487.77 227.95
  Q 487.91 228.43 488.40 228.34
  C 490.72 227.94 492.64 228.83 494.81 228.59
  Q 500.59 227.95 506.41 227.97
  C 507.33 227.98 508.50 228.79 509.52 227.84
  Q 509.93 227.47 509.99 228.02
  L 510.85 236.02
  Q 510.88 236.23 510.97 236.04
  Q 511.08 235.81 511.04 235.50
  Z"
/>
<path fill="#b447ff" d="
  M 25.71 228.75
  Q 20.21 275.54 33.21 320.75
  L 32.64 320.16
  Q 32.22 319.72 32.35 320.32
  L 33.57 325.77
  Q 33.64 326.07 33.42 326.29
  L 33.13 326.58
  Q 32.65 327.05 32.32 326.47
  L 31.77 325.51
  Q 31.47 325.00 30.87 325.00
  L 12.63 325.00
  Q 12.13 325.00 11.77 324.65
  L 11.18 324.06
  Q 10.70 323.57 10.61 324.25
  Q 10.47 325.41 9.79 326.25
  Q 0.89 294.59 0.00 261.69
  L 0.00 250.19
  L 1.46 229.75
  Q 1.75 230.31 1.78 230.98
  Q 1.82 231.96 1.95 231.00
  L 2.30 228.51
  Q 2.36 228.04 2.62 228.44
  Q 3.44 229.74 3.59 231.58
  Q 3.62 232.01 4.06 232.01
  L 22.81 231.98
  Q 24.70 231.98 23.96 230.34
  C 23.91 230.23 24.25 226.95 25.71 228.75
  Z"
/>
<path fill="#b447ff" d="
  M 378.00 235.71
  Q 377.54 253.11 377.78 270.49
  C 377.98 285.52 354.30 287.03 353.79 270.75
  L 353.96 237.64
  Q 353.97 235.30 354.14 237.64
  Q 354.44 241.51 354.24 245.40
  Q 354.22 245.80 354.48 245.49
  L 354.66 245.29
  Q 354.69 245.25 354.70 245.30
  L 355.07 247.49
  Q 355.20 248.29 355.20 247.45
  Q 355.21 246.06 356.33 245.25
  Q 356.69 244.99 357.14 244.99
  L 374.23 245.03
  Q 374.90 245.03 375.04 244.38
  L 376.16 239.54
  Q 376.30 238.92 376.60 239.48
  L 376.75 239.75
  Q 376.96 240.15 377.00 239.70
  Q 377.15 238.06 376.68 236.57
  Q 376.52 236.09 376.93 235.79
  Q 377.33 235.50 378.00 235.71
  Z"
/>
<path fill="#b447ff" d="
  M 352.25 312.21
  L 351.77 307.45
  Q 351.73 307.06 351.33 307.06
  L 330.78 306.98
  Q 330.25 306.97 329.97 307.42
  L 328.29 310.00
  C 326.76 293.77 313.93 281.97 297.66 281.44
  Q 297.16 281.43 296.78 281.76
  C 251.87 321.17 187.87 320.24 142.85 281.65
  A 1.21 1.19 62.4 0 0 141.98 281.37
  Q 120.82 282.85 113.21 302.50
  Q 112.75 302.44 112.72 302.00
  Q 112.67 301.47 112.41 301.92
  L 110.91 304.56
  Q 110.66 305.00 110.15 305.00
  L 91.27 305.00
  Q 90.74 305.00 90.55 305.50
  L 90.21 306.39
  Q 89.91 307.18 89.66 306.37
  L 89.13 304.72
  Q 89.00 304.30 88.84 304.71
  Q 88.79 304.85 88.77 305.01
  Q 88.71 305.40 88.54 305.05
  Q 88.44 304.84 88.25 304.71
  C 91.03 279.38 113.08 260.05 137.61 257.72
  C 143.72 257.14 150.70 256.41 155.49 260.67
  Q 161.73 266.21 164.33 268.17
  C 197.39 293.07 241.65 293.18 274.93 268.66
  C 278.87 265.76 285.02 258.05 291.98 257.58
  C 324.63 255.36 351.80 279.18 352.25 312.21
  Z"
/>
<path fill="#9c36ff" d="
  M 113.21 302.50
  Q 111.54 307.52 111.53 310.32
  Q 111.46 343.36 111.52 376.43
  Q 111.52 376.92 112.01 376.92
  L 327.86 377.01
  Q 328.44 377.01 328.43 376.43
  L 328.29 310.00
  L 329.97 307.42
  Q 330.25 306.97 330.78 306.98
  L 351.33 307.06
  Q 351.73 307.06 351.77 307.45
  L 352.25 312.21
  Q 352.74 349.98 352.44 387.75
  C 352.36 396.88 346.78 400.75 338.36 400.75
  Q 220.66 400.74 102.96 400.75
  C 92.17 400.76 87.52 397.01 87.51 386.18
  Q 87.48 348.97 87.49 311.75
  Q 87.49 308.19 88.25 304.71
  Q 88.44 304.84 88.54 305.05
  Q 88.71 305.40 88.77 305.01
  Q 88.79 304.85 88.84 304.71
  Q 89.00 304.30 89.13 304.72
  L 89.66 306.37
  Q 89.91 307.18 90.21 306.39
  L 90.55 305.50
  Q 90.74 305.00 91.27 305.00
  L 110.15 305.00
  Q 110.66 305.00 110.91 304.56
  L 112.41 301.92
  Q 112.67 301.47 112.72 302.00
  Q 112.75 302.44 113.21 302.50
  Z"
/>
<path fill="#9c36ff" d="
  M 479.54 317.75
  C 482.48 320.08 497.62 319.03 501.99 319.05
  Q 502.51 319.05 502.61 319.57
  Q 502.66 319.86 502.86 320.00
  Q 503.22 320.24 503.04 320.63
  Q 502.59 321.64 503.21 322.50
  Q 489.06 375.29 454.50 417.54
  C 452.10 415.94 431.19 416.95 426.35 416.88
  A 0.89 0.89 0.0 0 1 425.91 415.22
  Q 427.28 414.40 427.46 412.00
  Q 464.61 371.07 479.54 317.75
  Z"
/>
<path fill="#9c36ff" d="
  M 33.21 320.75
  Q 48.03 370.52 82.22 409.47
  L 83.01 412.17
  Q 83.12 412.53 83.38 412.78
  L 86.34 415.65
  A 0.78 0.78 0.0 0 1 85.80 416.99
  L 57.04 417.00
  Q 24.10 376.51 9.79 326.25
  Q 10.47 325.41 10.61 324.25
  Q 10.70 323.57 11.18 324.06
  L 11.77 324.65
  Q 12.13 325.00 12.63 325.00
  L 30.87 325.00
  Q 31.47 325.00 31.77 325.51
  L 32.32 326.47
  Q 32.65 327.05 33.13 326.58
  L 33.42 326.29
  Q 33.64 326.07 33.57 325.77
  L 32.35 320.32
  Q 32.22 319.72 32.64 320.16
  L 33.21 320.75
  Z"
/>
<path fill="#8c2bff" d="
  M 82.22 409.47
  C 174.37 513.06 333.78 514.03 427.46 412.00
  Q 427.28 414.40 425.91 415.22
  A 0.89 0.89 0.0 0 0 426.35 416.88
  C 431.19 416.95 452.10 415.94 454.50 417.54
  C 406.49 476.33 337.09 510.03 260.94 512.00
  L 249.44 512.00
  C 173.82 509.62 104.68 475.60 57.04 417.00
  L 85.80 416.99
  A 0.78 0.78 0.0 0 0 86.34 415.65
  L 83.38 412.78
  Q 83.12 412.53 83.01 412.17
  L 82.22 409.47
  Z"
/>
</svg>
