<?xml version="1.0" encoding="UTF-8" standalone="no"?>
<!DOCTYPE svg PUBLIC "-//W3C//DTD SVG 1.1//EN" "http://www.w3.org/Graphics/SVG/1.1/DTD/svg11.dtd">
<svg xmlns="http://www.w3.org/2000/svg" version="1.1" viewBox="0 0 512 512">
<g stroke-width="2.00" fill="none" stroke-linecap="butt">
<path stroke="#402e7a" vector-effect="non-scaling-stroke" d="
  M 477.39 256.00
  A 221.39 221.39 0.0 0 0 256.00 34.61
  A 221.39 221.39 0.0 0 0 34.61 256.00
  A 221.39 221.39 0.0 0 0 256.00 477.39
  A 221.39 221.39 0.0 0 0 477.39 256.00"
/>
<path stroke="#9b458f" vector-effect="non-scaling-stroke" d="
  M 206.25 115.46
  C 198.79 118.48 201.02 123.95 199.96 130.00"
/>
<path stroke="#978cb4" vector-effect="non-scaling-stroke" d="
  M 199.96 130.00
  Q 173.31 129.92 167.32 130.07
  C 150.11 130.48 134.68 142.07 130.95 159.39
  Q 130.02 163.72 130.13 172.82
  Q 130.31 186.38 130.25 199.96"
/>
<path stroke="#9b458f" vector-effect="non-scaling-stroke" d="
  M 130.25 199.96
  C 124.42 200.82 118.35 198.80 115.48 206.17"
/>
<path stroke="#963789" vector-effect="non-scaling-stroke" d="
  M 115.48 206.17
  Q 114.20 211.08 117.54 214.98"
/>
<path stroke="#402e7a" vector-effect="non-scaling-stroke" d="
  M 117.54 214.98
  Q 112.81 222.18 117.48 227.26
  C 120.70 230.75 125.79 230.67 130.21 230.00"
/>
<path stroke="#978cb4" vector-effect="non-scaling-stroke" d="
  M 130.21 230.00
  L 130.18 247.04"
/>
<path stroke="#9b458f" vector-effect="non-scaling-stroke" d="
  M 130.18 247.04
  C 123.59 247.45 117.68 246.99 115.38 253.63"
/>
<path stroke="#963789" vector-effect="non-scaling-stroke" d="
  M 115.38 253.63
  Q 114.24 258.97 118.00 262.46"
/>
<path stroke="#402e7a" vector-effect="non-scaling-stroke" d="
  M 118.00 262.46
  C 112.86 268.90 115.44 276.84 123.56 277.37
  Q 126.92 277.59 130.19 276.26"
/>
<path stroke="#978cb4" vector-effect="non-scaling-stroke" d="
  M 130.19 276.26
  L 130.00 294.46"
/>
<path stroke="#9b458f" vector-effect="non-scaling-stroke" d="
  M 130.00 294.46
  C 123.53 294.10 117.94 294.44 115.41 300.59"
/>
<path stroke="#963789" vector-effect="non-scaling-stroke" d="
  M 115.41 300.59
  Q 114.22 305.87 117.75 309.46"
/>
<path stroke="#402e7a" vector-effect="non-scaling-stroke" d="
  M 117.75 309.46
  Q 115.22 312.25 115.22 315.51
  C 115.23 323.51 122.57 325.59 129.19 324.19
  A 0.99 0.99 0.0 0 0 129.98 323.23
  L 130.04 318.75"
/>
<path stroke="#978cb4" vector-effect="non-scaling-stroke" d="
  M 130.04 318.75
  C 130.29 328.68 129.27 339.94 130.56 349.64
  Q 130.79 351.32 130.61 353.01"
/>
<path stroke="#402e7a" vector-effect="non-scaling-stroke" d="
  M 130.61 353.01
  Q 128.99 378.02 149.10 389.71
  C 155.01 393.15 161.49 394.43 168.25 394.45
  Q 183.82 394.48 199.25 394.51
  A 1.00 1.00 0.0 0 1 200.25 395.53
  Q 200.20 398.16 200.42 400.75
  C 200.99 407.32 206.67 412.14 213.20 408.34
  C 217.34 405.93 217.51 400.41 217.14 395.79
  A 1.00 0.99 87.9 0 1 218.14 394.71
  L 246.40 394.77
  A 1.00 1.00 0.0 0 1 247.40 395.72
  Q 247.50 397.64 247.54 399.55
  Q 247.61 402.72 248.14 404.23
  C 250.07 409.65 257.61 411.37 261.59 407.39
  C 264.49 404.50 264.98 399.81 264.23 395.84
  A 1.01 1.01 0.0 0 1 265.22 394.65
  L 293.52 394.79
  A 1.00 1.00 0.0 0 1 294.51 395.84
  Q 294.38 398.63 294.72 401.37
  C 296.18 413.33 311.58 411.21 311.54 401.00
  Q 311.52 397.27 311.67 395.44
  A 0.99 0.99 0.0 0 1 312.66 394.53
  Q 326.42 394.44 340.20 394.53
  Q 348.40 394.58 353.21 393.35
  C 368.83 389.37 380.39 376.82 381.65 359.83
  C 381.73 358.73 382.73 353.81 380.91 353.76"
/>
<path stroke="#978cb4" vector-effect="non-scaling-stroke" d="
  M 380.91 353.76
  Q 382.26 339.17 381.79 324.50"
/>
<path stroke="#402e7a" vector-effect="non-scaling-stroke" d="
  M 381.79 324.50
  Q 389.03 324.95 390.94 323.94
  Q 400.75 318.73 394.00 309.71"
/>
<path stroke="#963789" vector-effect="non-scaling-stroke" d="
  M 394.00 309.71
  Q 397.58 306.20 396.71 301.25"
/>
<path stroke="#9b458f" vector-effect="non-scaling-stroke" d="
  M 396.71 301.25
  C 394.70 294.42 388.36 294.12 381.77 294.33"
/>
<path stroke="#978cb4" vector-effect="non-scaling-stroke" d="
  M 381.77 294.33
  L 381.79 277.25"
/>
<path stroke="#402e7a" vector-effect="non-scaling-stroke" d="
  M 381.79 277.25
  Q 386.66 277.51 389.07 277.15
  C 396.19 276.10 399.80 267.51 393.75 262.71"
/>
<path stroke="#963789" vector-effect="non-scaling-stroke" d="
  M 393.75 262.71
  Q 397.58 259.33 396.71 254.25"
/>
<path stroke="#9b458f" vector-effect="non-scaling-stroke" d="
  M 396.71 254.25
  Q 392.56 245.00 381.76 247.32"
/>
<path stroke="#978cb4" vector-effect="non-scaling-stroke" d="
  M 381.76 247.32
  L 381.79 230.50"
/>
<path stroke="#402e7a" vector-effect="non-scaling-stroke" d="
  M 381.79 230.50
  C 388.38 229.85 396.54 230.59 396.78 221.54
  Q 396.88 217.83 393.50 215.71"
/>
<path stroke="#963789" vector-effect="non-scaling-stroke" d="
  M 393.50 215.71
  Q 397.97 211.99 396.54 206.20"
/>
<path stroke="#9b458f" vector-effect="non-scaling-stroke" d="
  M 396.54 206.20
  C 393.74 199.10 387.75 200.76 381.79 199.75"
/>
<path stroke="#978cb4" vector-effect="non-scaling-stroke" d="
  M 381.79 199.75
  Q 381.66 188.53 381.78 177.33
  Q 381.93 163.34 380.67 158.31
  C 376.88 143.20 363.28 131.19 347.50 130.22
  Q 338.30 129.66 311.77 130.08"
/>
<path stroke="#963789" vector-effect="non-scaling-stroke" d="
  M 311.77 130.08
  Q 314.29 115.22 300.79 115.23"
/>
<path stroke="#9b458f" vector-effect="non-scaling-stroke" d="
  M 300.79 115.23
  C 293.04 118.73 295.53 123.66 294.18 130.02"
/>
<path stroke="#978cb4" vector-effect="non-scaling-stroke" d="
  M 294.18 130.02
  L 265.00 129.96"
/>
<path stroke="#963789" vector-effect="non-scaling-stroke" d="
  M 265.00 129.96
  C 264.63 122.21 264.08 113.96 254.00 115.29"
/>
<path stroke="#9b458f" vector-effect="non-scaling-stroke" d="
  M 254.00 115.29
  C 247.12 117.35 247.46 123.25 246.96 130.00"
/>
<path stroke="#978cb4" vector-effect="non-scaling-stroke" d="
  M 246.96 130.00
  L 217.54 129.75"
/>
<path stroke="#963789" vector-effect="non-scaling-stroke" d="
  M 217.54 129.75
  C 217.79 121.99 216.54 113.54 206.25 115.46"
/>
<path stroke="#e592bd" vector-effect="non-scaling-stroke" d="
  M 217.54 129.75
  L 217.50 154.71"
/>
<path stroke="#ea4c97" vector-effect="non-scaling-stroke" d="
  M 217.50 154.71
  Q 214.71 155.28 211.83 154.90
  A 0.99 0.99 0.0 0 1 210.96 153.91
  Q 211.11 135.30 210.94 124.56
  C 210.87 119.57 208.74 119.10 206.25 115.46"
/>
<path stroke="#eba1c3" vector-effect="non-scaling-stroke" d="
  M 264.75 154.71
  Q 279.13 155.29 293.46 154.91
  A 1.00 1.00 0.0 0 0 294.43 153.90
  L 294.18 130.02"
/>
<path stroke="#eba1c3" vector-effect="non-scaling-stroke" d="
  M 311.78 154.69
  C 319.21 155.14 328.08 154.08 334.88 156.01
  Q 353.12 161.20 356.94 181.20"
/>
<path stroke="#f7a769" vector-effect="non-scaling-stroke" d="
  M 356.94 181.20
  L 356.00 181.29"
/>
<path stroke="#ef5a9d" vector-effect="non-scaling-stroke" d="
  M 356.00 181.29
  C 355.51 181.04 355.15 180.90 354.91 180.37
  Q 348.84 167.00 336.13 163.06
  Q 331.06 161.49 317.71 161.49
  Q 259.12 161.50 200.54 161.50"
/>
<path stroke="#f79c6c" vector-effect="non-scaling-stroke" d="
  M 200.54 161.50
  Q 200.84 158.04 200.00 154.71"
/>
<path stroke="#eba1c3" vector-effect="non-scaling-stroke" d="
  M 200.00 154.71
  L 199.96 130.00"
/>
<path stroke="#eba1c3" vector-effect="non-scaling-stroke" d="
  M 217.50 154.71
  L 246.15 154.89
  A 1.00 0.99 90.0 0 0 247.15 153.88
  L 246.96 130.00"
/>
<path stroke="#fbdf25" vector-effect="non-scaling-stroke" d="
  M 356.97 194.63
  L 275.62 194.49
  A 1.00 0.99 -0.9 0 1 274.62 193.53
  L 274.46 188.75"
/>
<path stroke="#f2e391" vector-effect="non-scaling-stroke" d="
  M 200.00 154.71
  L 180.71 155.06"
/>
<path stroke="#eba1c3" vector-effect="non-scaling-stroke" d="
  M 180.71 155.06
  C 164.17 158.54 155.03 170.03 155.01 186.53
  Q 155.00 192.74 154.97 198.97
  A 1.01 1.00 -89.7 0 1 153.97 199.97
  L 130.25 199.96"
/>
<path stroke="#eba1c3" vector-effect="non-scaling-stroke" d="
  M 381.79 199.75
  L 357.29 200.00"
/>
<path stroke="#efd97f" vector-effect="non-scaling-stroke" d="
  M 357.29 200.00
  L 356.97 194.63"
/>
<path stroke="#f3ed8f" vector-effect="non-scaling-stroke" d="
  M 356.97 194.63
  L 356.94 181.20"
/>
<path stroke="#f7a769" vector-effect="non-scaling-stroke" d="
  M 180.96 162.23
  L 181.04 177.75"
/>
<path stroke="#f39359" vector-effect="non-scaling-stroke" d="
  M 174.76 189.22
  Q 173.91 192.64 174.68 195.51"
/>
<path stroke="#ea4c97" vector-effect="non-scaling-stroke" d="
  M 174.68 195.51
  Q 174.03 206.41 182.22 211.35
  C 187.88 214.76 194.83 214.51 200.15 210.63
  Q 207.35 205.40 206.35 196.28"
/>
<path stroke="#f39359" vector-effect="non-scaling-stroke" d="
  M 206.35 196.28
  Q 207.00 192.87 206.61 189.22"
/>
<path stroke="#f7a769" vector-effect="non-scaling-stroke" d="
  M 356.00 181.29
  L 273.42 181.49"
/>
<path stroke="#f79c6c" vector-effect="non-scaling-stroke" d="
  M 273.42 181.49
  L 272.00 181.49
  A 1.00 1.00 0.0 0 1 271.24 181.14
  C 261.68 169.81 245.43 175.16 242.54 189.50"
/>
<path stroke="#f39359" vector-effect="non-scaling-stroke" d="
  M 242.54 189.50
  L 242.84 196.75"
/>
<path stroke="#ea4c97" vector-effect="non-scaling-stroke" d="
  M 242.84 196.75
  Q 242.86 208.82 252.73 212.57
  C 259.51 215.14 266.77 213.25 271.30 207.62
  A 1.01 1.00 19.3 0 1 272.08 207.25
  L 355.90 207.25
  A 1.00 1.00 0.0 0 0 356.88 206.45
  Q 357.45 203.66 356.71 201.00"
/>
<path stroke="#f39359" vector-effect="non-scaling-stroke" d="
  M 356.71 201.00
  L 357.29 200.00"
/>
<path stroke="#ea4c97" vector-effect="non-scaling-stroke" d="
  M 396.54 206.20
  Q 392.92 210.50 389.24 210.77
  Q 381.67 211.32 358.07 210.96
  A 0.99 0.99 0.0 0 0 357.07 211.79
  Q 356.57 214.77 357.50 217.54"
/>
<path stroke="#d68caf" vector-effect="non-scaling-stroke" d="
  M 357.50 217.54
  Q 356.60 220.57 357.04 223.75"
/>
<path stroke="#eba1c3" vector-effect="non-scaling-stroke" d="
  M 357.04 223.75
  L 357.01 246.17
  A 1.00 1.00 0.0 0 0 358.01 247.17
  L 381.76 247.32"
/>
<path stroke="#ea4c97" vector-effect="non-scaling-stroke" d="
  M 396.71 254.25
  L 395.89 254.21
  A 0.99 0.99 0.0 0 0 395.06 254.58
  Q 392.26 258.09 387.49 258.07
  Q 372.83 258.01 358.09 258.01
  A 1.00 0.99 5.2 0 0 357.11 258.82
  Q 356.55 261.85 357.50 264.71"
/>
<path stroke="#d68caf" vector-effect="non-scaling-stroke" d="
  M 357.50 264.71
  Q 356.58 267.36 357.04 270.69"
/>
<path stroke="#eba1c3" vector-effect="non-scaling-stroke" d="
  M 357.04 270.69
  L 357.10 293.30
  A 0.99 0.99 0.0 0 0 358.09 294.29
  L 381.77 294.33"
/>
<path stroke="#ea4c97" vector-effect="non-scaling-stroke" d="
  M 396.71 301.25
  L 395.95 301.21
  A 1.02 1.02 0.0 0 0 395.11 301.60
  Q 392.32 305.24 387.48 305.24
  Q 372.77 305.25 358.00 305.29
  A 0.99 0.98 3.6 0 0 357.02 306.15
  Q 356.61 309.05 357.52 311.84"
/>
<path stroke="#d68caf" vector-effect="non-scaling-stroke" d="
  M 357.52 311.84
  Q 356.59 314.51 357.04 317.75"
/>
<path stroke="#eba1c3" vector-effect="non-scaling-stroke" d="
  M 357.04 317.75
  Q 357.15 318.93 356.76 319.92"
/>
<path stroke="#ea4c97" vector-effect="non-scaling-stroke" d="
  M 356.76 319.92
  Q 352.61 339.17 334.91 344.19
  C 328.99 345.87 321.55 345.55 315.00 345.54"
/>
<path stroke="#f39359" vector-effect="non-scaling-stroke" d="
  M 315.00 345.54
  L 314.75 345.46"
/>
<path stroke="#f7a769" vector-effect="non-scaling-stroke" d="
  M 314.75 345.46
  L 314.86 255.61"
/>
<path stroke="#ea4c97" vector-effect="non-scaling-stroke" d="
  M 314.86 255.61
  Q 320.46 251.53 320.92 243.49
  Q 321.00 242.12 320.25 241.96"
/>
<path stroke="#f39359" vector-effect="non-scaling-stroke" d="
  M 320.25 241.96
  Q 321.18 238.89 320.45 235.65"
/>
<path stroke="#f79c6c" vector-effect="non-scaling-stroke" d="
  M 320.45 235.65
  C 317.11 217.14 290.96 217.21 288.59 235.59"
/>
<path stroke="#f39359" vector-effect="non-scaling-stroke" d="
  M 288.59 235.59
  Q 287.88 239.96 288.94 243.74"
/>
<path stroke="#ea4c97" vector-effect="non-scaling-stroke" d="
  M 288.94 243.74
  Q 287.66 252.32 295.19 256.58"
/>
<path stroke="#f39359" vector-effect="non-scaling-stroke" d="
  M 295.19 256.58
  L 295.22 345.36"
/>
<path stroke="#ea4c97" vector-effect="non-scaling-stroke" d="
  M 295.22 345.36
  L 200.54 345.50"
/>
<path stroke="#f39359" vector-effect="non-scaling-stroke" d="
  M 200.54 345.50
  L 200.54 306.75"
/>
<path stroke="#ea4c97" vector-effect="non-scaling-stroke" d="
  M 200.54 306.75
  L 243.82 306.61
  A 1.00 1.00 0.0 0 1 244.58 306.96
  C 249.73 312.95 257.55 314.76 264.68 311.25
  Q 273.17 307.08 273.04 296.01"
/>
<path stroke="#f39359" vector-effect="non-scaling-stroke" d="
  M 273.04 296.01
  Q 273.93 291.97 273.25 287.96"
/>
<path stroke="#f79c6c" vector-effect="non-scaling-stroke" d="
  M 273.25 287.96
  C 270.31 273.31 253.49 270.07 243.87 281.13"
/>
<path stroke="#f7a769" vector-effect="non-scaling-stroke" d="
  M 243.87 281.13
  Q 220.13 280.92 196.65 280.99
  C 185.29 281.02 180.98 286.25 180.99 297.44
  Q 181.03 321.22 180.96 345.00"
/>
<path stroke="#f39359" vector-effect="non-scaling-stroke" d="
  M 180.96 345.00
  L 180.71 345.25"
/>
<path stroke="#ea4c97" vector-effect="non-scaling-stroke" d="
  M 180.71 345.25
  Q 160.43 340.90 155.30 320.91"
/>
<path stroke="#eba1c3" vector-effect="non-scaling-stroke" d="
  M 155.30 320.91
  Q 154.81 319.57 154.96 318.00"
/>
<path stroke="#d68caf" vector-effect="non-scaling-stroke" d="
  M 154.96 318.00
  Q 155.41 314.81 154.50 311.79"
/>
<path stroke="#ea4c97" vector-effect="non-scaling-stroke" d="
  M 154.50 311.79
  Q 155.46 309.01 154.89 306.06
  A 1.00 0.99 -5.2 0 0 153.91 305.25
  Q 139.08 305.26 124.26 305.23
  Q 119.45 305.22 115.41 300.59"
/>
<path stroke="#eba1c3" vector-effect="non-scaling-stroke" d="
  M 130.00 294.46
  L 153.78 294.27
  A 1.00 1.00 0.0 0 0 154.77 293.27
  L 154.96 270.75"
/>
<path stroke="#d68caf" vector-effect="non-scaling-stroke" d="
  M 154.96 270.75
  L 154.71 264.75"
/>
<path stroke="#ea4c97" vector-effect="non-scaling-stroke" d="
  M 154.71 264.75
  Q 155.39 261.85 154.87 258.83
  A 1.01 1.01 0.0 0 0 153.88 258.00
  Q 139.94 258.02 126.02 257.98
  Q 122.46 257.96 120.30 256.98
  Q 117.61 255.76 115.38 253.63"
/>
<path stroke="#eba1c3" vector-effect="non-scaling-stroke" d="
  M 130.18 247.04
  L 153.90 247.16
  A 1.00 1.00 0.0 0 0 154.90 246.16
  L 154.96 223.75"
/>
<path stroke="#d68caf" vector-effect="non-scaling-stroke" d="
  M 154.96 223.75
  L 154.71 217.50"
/>
<path stroke="#ea4c97" vector-effect="non-scaling-stroke" d="
  M 154.71 217.50
  Q 155.33 214.75 154.88 211.82
  A 1.01 1.00 -5.0 0 0 153.87 210.98
  Q 139.42 211.16 124.99 210.80
  Q 121.68 210.72 119.74 209.68
  Q 117.35 208.39 115.48 206.17"
/>
<path stroke="#e592bd" vector-effect="non-scaling-stroke" d="
  M 311.77 130.08
  L 311.78 154.69"
/>
<path stroke="#ea4c97" vector-effect="non-scaling-stroke" d="
  M 311.78 154.69
  Q 309.04 155.32 306.07 154.90
  A 1.01 1.00 4.6 0 1 305.21 153.90
  Q 305.42 129.82 305.18 124.06
  Q 305.01 119.68 300.79 115.23"
/>
<path stroke="#e592bd" vector-effect="non-scaling-stroke" d="
  M 265.00 129.96
  L 264.75 154.71"
/>
<path stroke="#ea4c97" vector-effect="non-scaling-stroke" d="
  M 264.75 154.71
  Q 261.85 155.30 258.86 154.87
  A 1.00 0.99 4.7 0 1 258.01 153.88
  Q 258.02 138.47 257.97 123.06
  Q 257.95 119.56 254.68 117.06
  A 1.00 0.99 -72.0 0 1 254.29 116.29
  Q 254.28 115.71 254.00 115.29"
/>
<path stroke="#f79c6c" vector-effect="non-scaling-stroke" d="
  M 200.54 161.50
  Q 199.76 169.85 200.64 178.17
  A 0.99 0.96 -73.3 0 0 200.97 178.81
  Q 205.67 183.03 206.61 189.22"
/>
<path stroke="#fbd528" vector-effect="non-scaling-stroke" d="
  M 206.61 189.22
  Q 205.38 190.39 204.66 191.99
  C 200.97 200.13 190.97 203.04 183.30 198.90
  Q 177.58 195.82 174.76 189.22"
/>
<path stroke="#f79c6c" vector-effect="non-scaling-stroke" d="
  M 174.76 189.22
  Q 175.61 182.74 181.04 177.75"
/>
<path stroke="#ffe938" vector-effect="non-scaling-stroke" d="
  M 181.04 177.75
  Q 186.82 174.72 193.40 175.21
  A 1.00 1.00 0.0 0 0 194.47 174.22
  L 194.52 162.58
  A 1.00 0.99 2.9 0 0 193.62 161.59
  Q 187.26 160.91 180.96 162.23"
/>
<path stroke="#f79c6c" vector-effect="non-scaling-stroke" d="
  M 180.96 162.23
  L 180.71 155.06"
/>
<path stroke="#ee8453" vector-effect="non-scaling-stroke" d="
  M 356.71 201.00
  L 272.25 200.99
  A 1.01 0.97 -69.1 0 0 271.50 201.34
  C 262.53 211.61 248.80 208.47 242.84 196.75"
/>
<path stroke="#ffe938" vector-effect="non-scaling-stroke" d="
  M 273.42 181.49
  Q 272.90 185.24 274.46 188.75"
/>
<path stroke="#fbd528" vector-effect="non-scaling-stroke" d="
  M 274.46 188.75
  C 268.91 203.70 249.25 205.69 243.63 189.79
  C 243.41 189.16 243.06 188.99 242.54 189.50"
/>
<path stroke="#d07ea9" vector-effect="non-scaling-stroke" d="
  M 356.46 333.75
  Q 350.97 352.44 331.94 356.69
  Q 327.31 357.72 315.00 356.71"
/>
<path stroke="#fbd528" vector-effect="non-scaling-stroke" d="
  M 320.45 235.65
  Q 319.24 237.08 318.40 238.72
  C 314.70 245.94 306.64 249.20 299.03 246.29
  Q 291.74 243.51 288.59 235.59"
/>
<path stroke="#ee8453" vector-effect="non-scaling-stroke" d="
  M 320.25 241.96
  Q 318.63 247.15 314.65 250.63"
/>
<path stroke="#fbdf25" vector-effect="non-scaling-stroke" d="
  M 314.65 250.63
  Q 309.33 254.02 303.03 253.84
  A 1.00 1.00 0.0 0 0 302.00 254.84
  L 302.00 344.49
  A 1.00 1.00 0.0 0 0 303.00 345.49
  L 314.75 345.46"
/>
<path stroke="#ee8453" vector-effect="non-scaling-stroke" d="
  M 315.00 345.54
  L 315.00 356.71"
/>
<path stroke="#dac56b" vector-effect="non-scaling-stroke" d="
  M 315.00 356.71
  L 311.96 357.25"
/>
<path stroke="#ee8453" vector-effect="non-scaling-stroke" d="
  M 311.96 357.25
  L 305.25 357.04"
/>
<path stroke="#f39359" vector-effect="non-scaling-stroke" d="
  M 305.25 357.04
  L 295.04 356.75"
/>
<path stroke="#ee8453" vector-effect="non-scaling-stroke" d="
  M 295.04 356.75
  L 295.22 345.36"
/>
<path stroke="#ee8453" vector-effect="non-scaling-stroke" d="
  M 295.19 256.58
  L 295.22 252.04
  A 1.02 1.01 -69.1 0 0 294.89 251.29
  Q 291.43 248.12 288.94 243.74"
/>
<path stroke="#8e3482" vector-effect="non-scaling-stroke" d="
  M 393.75 262.71
  Q 388.38 265.52 382.25 264.79"
/>
<path stroke="#d07ea9" vector-effect="non-scaling-stroke" d="
  M 382.25 264.79
  L 357.50 264.71"
/>
<path stroke="#d1d3d4" vector-effect="non-scaling-stroke" d="
  M 381.96 271.00
  L 357.04 270.69"
/>
<path stroke="#8e3482" vector-effect="non-scaling-stroke" d="
  M 394.00 309.71
  C 389.83 312.49 385.92 311.38 382.00 312.04"
/>
<path stroke="#d07ea9" vector-effect="non-scaling-stroke" d="
  M 382.00 312.04
  L 357.52 311.84"
/>
<path stroke="#d07ea9" vector-effect="non-scaling-stroke" d="
  M 154.50 311.79
  L 130.00 312.04"
/>
<path stroke="#8e3482" vector-effect="non-scaling-stroke" d="
  M 130.00 312.04
  C 125.45 311.37 122.12 312.62 117.75 309.46"
/>
<path stroke="#fbd528" vector-effect="non-scaling-stroke" d="
  M 273.25 287.96
  C 271.71 289.54 271.69 291.48 270.58 293.00
  C 261.91 304.84 246.41 301.13 241.48 288.12"
/>
<path stroke="#ffe938" vector-effect="non-scaling-stroke" d="
  M 241.48 288.12
  Q 242.09 284.69 243.87 281.13"
/>
<path stroke="#ea4c97" vector-effect="non-scaling-stroke" d="
  M 295.04 356.75
  L 294.00 357.04"
/>
<path stroke="#d07ea9" vector-effect="non-scaling-stroke" d="
  M 294.00 357.04
  L 265.81 357.06
  A 1.00 1.00 0.0 0 0 264.81 358.06
  L 264.79 363.75"
/>
<path stroke="#e592bd" vector-effect="non-scaling-stroke" d="
  M 264.79 363.75
  L 264.79 382.00"
/>
<path stroke="#8e3482" vector-effect="non-scaling-stroke" d="
  M 264.79 382.00
  C 265.32 389.76 263.47 398.51 253.57 396.62"
/>
<path stroke="#ea4c97" vector-effect="non-scaling-stroke" d="
  M 253.57 396.62
  Q 255.68 394.44 256.92 391.87
  Q 257.95 389.73 257.97 386.31
  Q 258.05 372.31 257.98 358.22
  A 1.01 1.01 0.0 0 0 256.98 357.22
  L 247.27 357.19"
/>
<path stroke="#d07ea9" vector-effect="non-scaling-stroke" d="
  M 247.27 357.19
  L 218.61 357.05
  A 1.00 1.00 0.0 0 0 217.61 358.04
  L 217.54 363.50"
/>
<path stroke="#e592bd" vector-effect="non-scaling-stroke" d="
  M 217.54 363.50
  L 217.34 381.97"
/>
<path stroke="#8e3482" vector-effect="non-scaling-stroke" d="
  M 217.34 381.97
  Q 220.09 394.53 208.50 397.07
  Q 207.91 397.20 206.81 396.67"
/>
<path stroke="#ea4c97" vector-effect="non-scaling-stroke" d="
  M 206.81 396.67
  L 210.70 390.63
  A 1.02 0.98 -29.7 0 0 210.86 390.09
  L 211.07 357.84
  A 1.01 1.00 86.7 0 0 209.95 356.84
  Q 205.08 357.39 200.46 356.75"
/>
<path stroke="#ee8453" vector-effect="non-scaling-stroke" d="
  M 273.04 296.01
  C 267.14 307.90 253.30 310.88 244.28 300.56
  A 1.02 1.00 -20.3 0 0 243.52 300.22
  L 201.65 300.32
  A 0.99 0.99 0.0 0 0 200.66 301.29
  L 200.54 306.75"
/>
<path stroke="#ee8453" vector-effect="non-scaling-stroke" d="
  M 200.54 345.50
  L 200.46 356.75"
/>
<path stroke="#f39359" vector-effect="non-scaling-stroke" d="
  M 200.46 356.75
  L 200.00 357.04"
/>
<path stroke="#dac56b" vector-effect="non-scaling-stroke" d="
  M 200.00 357.04
  C 196.41 357.02 183.23 357.88 180.79 356.50"
/>
<path stroke="#ee8453" vector-effect="non-scaling-stroke" d="
  M 180.79 356.50
  L 180.71 345.25"
/>
<path stroke="#e592bd" vector-effect="non-scaling-stroke" d="
  M 155.30 320.91
  Q 154.71 327.20 155.22 333.24"
/>
<path stroke="#d1d3d4" vector-effect="non-scaling-stroke" d="
  M 155.22 333.24
  Q 156.21 353.13 172.58 360.60
  C 180.45 364.19 191.18 363.87 199.96 363.25"
/>
<path stroke="#eba1c3" vector-effect="non-scaling-stroke" d="
  M 199.96 363.25
  L 199.96 382.00"
/>
<path stroke="#8f89ae" vector-effect="non-scaling-stroke" d="
  M 199.96 382.00
  C 186.75 382.00 169.31 383.45 157.99 380.49
  Q 137.73 375.20 130.61 353.01"
/>
<path stroke="#d1d3d4" vector-effect="non-scaling-stroke" d="
  M 154.96 318.00
  L 130.04 318.25"
/>
<path stroke="#d1d3d4" vector-effect="non-scaling-stroke" d="
  M 381.96 224.00
  L 357.04 223.75"
/>
<path stroke="#f29863" vector-effect="non-scaling-stroke" d="
  M 314.86 255.61
  L 314.65 250.63"
/>
<path stroke="#d07ea9" vector-effect="non-scaling-stroke" d="
  M 154.71 264.75
  L 129.75 264.79"
/>
<path stroke="#8e3482" vector-effect="non-scaling-stroke" d="
  M 129.75 264.79
  Q 123.40 265.60 118.00 262.46"
/>
<path stroke="#d1d3d4" vector-effect="non-scaling-stroke" d="
  M 154.96 270.75
  L 130.04 271.25"
/>
<path stroke="#ee8453" vector-effect="non-scaling-stroke" d="
  M 206.35 196.28
  C 199.79 211.51 180.30 211.23 174.68 195.51"
/>
<path stroke="#8e3482" vector-effect="non-scaling-stroke" d="
  M 393.50 215.71
  Q 388.24 218.31 382.25 217.54"
/>
<path stroke="#d07ea9" vector-effect="non-scaling-stroke" d="
  M 382.25 217.54
  L 357.50 217.54"
/>
<path stroke="#8f89ae" vector-effect="non-scaling-stroke" d="
  M 380.91 353.76
  Q 373.58 376.04 352.91 380.76
  C 342.11 383.23 325.09 382.00 312.04 382.00"
/>
<path stroke="#e592bd" vector-effect="non-scaling-stroke" d="
  M 312.04 382.00
  L 311.79 363.75"
/>
<path stroke="#d1d3d4" vector-effect="non-scaling-stroke" d="
  M 311.79 363.75
  Q 320.96 363.31 325.54 363.36
  C 342.17 363.54 357.33 351.15 356.46 333.75"
/>
<path stroke="#e592bd" vector-effect="non-scaling-stroke" d="
  M 356.46 333.75
  Q 357.44 326.96 356.76 319.92"
/>
<path stroke="#d07ea9" vector-effect="non-scaling-stroke" d="
  M 180.79 356.50
  Q 180.62 356.86 180.24 356.78
  Q 160.80 352.51 155.22 333.24"
/>
<path stroke="#d1d3d4" vector-effect="non-scaling-stroke" d="
  M 381.85 318.28
  L 357.04 317.75"
/>
<path stroke="#d1d3d4" vector-effect="non-scaling-stroke" d="
  M 154.96 223.75
  L 130.04 223.75"
/>
<path stroke="#d07ea9" vector-effect="non-scaling-stroke" d="
  M 154.71 217.50
  L 130.00 217.54"
/>
<path stroke="#8e3482" vector-effect="non-scaling-stroke" d="
  M 130.00 217.54
  Q 123.14 218.51 117.54 214.98"
/>
<path stroke="#fbdf25" vector-effect="non-scaling-stroke" d="
  M 241.48 288.12
  Q 240.84 291.18 241.41 294.05
  A 1.00 1.00 0.0 0 1 240.43 295.25
  L 196.52 295.25
  A 1.00 1.00 0.0 0 0 195.52 296.25
  L 195.46 344.24
  A 1.01 0.99 -3.2 0 1 194.56 345.23
  Q 187.68 345.95 180.96 345.00"
/>
<path stroke="#d07ea9" vector-effect="non-scaling-stroke" d="
  M 311.79 363.75
  L 311.96 357.25"
/>
<path stroke="#7a759a" vector-effect="non-scaling-stroke" d="
  M 130.00 217.54
  L 130.04 223.75"
/>
<path stroke="#8f89ae" vector-effect="non-scaling-stroke" d="
  M 130.04 223.75
  L 130.21 230.00"
/>
<path stroke="#ea4c97" vector-effect="non-scaling-stroke" d="
  M 305.25 357.04
  Q 305.27 372.15 305.22 387.24
  Q 305.20 392.54 300.53 396.71"
/>
<path stroke="#eba1c3" vector-effect="non-scaling-stroke" d="
  M 294.41 382.01
  L 294.21 363.25"
/>
<path stroke="#d68caf" vector-effect="non-scaling-stroke" d="
  M 294.21 363.25
  Q 294.84 360.12 294.00 357.04"
/>
<path stroke="#8f89ae" vector-effect="non-scaling-stroke" d="
  M 381.79 277.25
  L 381.96 271.00"
/>
<path stroke="#7a759a" vector-effect="non-scaling-stroke" d="
  M 381.96 271.00
  L 382.25 264.79"
/>
<path stroke="#8f89ae" vector-effect="non-scaling-stroke" d="
  M 381.79 324.50
  L 381.85 318.28"
/>
<path stroke="#7a759a" vector-effect="non-scaling-stroke" d="
  M 381.85 318.28
  L 382.00 312.04"
/>
<path stroke="#8f89ae" vector-effect="non-scaling-stroke" d="
  M 381.79 230.50
  L 381.96 224.00"
/>
<path stroke="#7a759a" vector-effect="non-scaling-stroke" d="
  M 381.96 224.00
  L 382.25 217.54"
/>
<path stroke="#7a759a" vector-effect="non-scaling-stroke" d="
  M 130.00 312.04
  L 130.04 318.25"
/>
<path stroke="#8f89ae" vector-effect="non-scaling-stroke" d="
  M 130.04 318.25
  L 130.04 318.75"
/>
<path stroke="#d68caf" vector-effect="non-scaling-stroke" d="
  M 247.27 357.19
  L 247.00 363.46"
/>
<path stroke="#d1d3d4" vector-effect="non-scaling-stroke" d="
  M 247.00 363.46
  L 217.54 363.50"
/>
<path stroke="#944388" vector-effect="non-scaling-stroke" d="
  M 199.96 382.00
  C 200.99 388.02 198.81 394.39 206.81 396.67"
/>
<path stroke="#8f89ae" vector-effect="non-scaling-stroke" d="
  M 217.34 381.97
  L 247.00 381.96"
/>
<path stroke="#944388" vector-effect="non-scaling-stroke" d="
  M 247.00 381.96
  C 247.74 388.03 246.64 394.16 253.57 396.62"
/>
<path stroke="#8f89ae" vector-effect="non-scaling-stroke" d="
  M 264.79 382.00
  L 294.41 382.01"
/>
<path stroke="#944388" vector-effect="non-scaling-stroke" d="
  M 294.41 382.01
  Q 292.78 392.22 300.53 396.71"
/>
<path stroke="#8e3482" vector-effect="non-scaling-stroke" d="
  M 300.53 396.71
  Q 308.51 397.78 311.05 391.56
  C 312.15 388.86 311.59 385.19 312.04 382.00"
/>
<path stroke="#eba1c3" vector-effect="non-scaling-stroke" d="
  M 247.00 381.96
  Q 247.62 372.71 247.00 363.46"
/>
<path stroke="#d1d3d4" vector-effect="non-scaling-stroke" d="
  M 294.21 363.25
  L 264.79 363.75"
/>
<path stroke="#d68caf" vector-effect="non-scaling-stroke" d="
  M 200.00 357.04
  L 199.96 363.25"
/>
<path stroke="#7a759a" vector-effect="non-scaling-stroke" d="
  M 129.75 264.79
  L 130.04 271.25"
/>
<path stroke="#8f89ae" vector-effect="non-scaling-stroke" d="
  M 130.04 271.25
  L 130.19 276.26"
/>
<path stroke="#f39359" vector-effect="non-scaling-stroke" d="
  M 174.74 235.80
  Q 174.04 239.85 174.91 243.50"
/>
<path stroke="#ea4c97" vector-effect="non-scaling-stroke" d="
  M 174.91 243.50
  Q 174.53 251.43 179.53 256.00
  C 186.30 262.21 197.28 261.67 203.18 254.21
  A 1.01 1.00 18.9 0 1 203.97 253.83
  L 245.28 254.03
  A 0.98 0.96 -19.0 0 1 246.04 254.39
  C 253.56 263.37 266.97 261.82 272.82 251.83
  Q 275.40 247.40 274.21 242.77"
/>
<path stroke="#f39359" vector-effect="non-scaling-stroke" d="
  M 274.21 242.77
  Q 275.46 239.27 274.55 235.42"
/>
<path stroke="#f79c6c" vector-effect="non-scaling-stroke" d="
  M 274.55 235.42
  C 271.83 220.29 254.44 217.51 244.93 228.44"
/>
<path stroke="#f7a769" vector-effect="non-scaling-stroke" d="
  M 244.93 228.44
  L 204.10 228.42"
/>
<path stroke="#f79c6c" vector-effect="non-scaling-stroke" d="
  M 204.10 228.42
  C 194.59 217.15 177.11 220.55 174.74 235.80"
/>
<path stroke="#ffe938" vector-effect="non-scaling-stroke" d="
  M 204.10 228.42
  L 206.45 235.35"
/>
<path stroke="#fbd528" vector-effect="non-scaling-stroke" d="
  M 206.45 235.35
  C 202.94 244.76 193.74 250.15 184.19 245.88
  Q 177.81 243.03 174.74 235.80"
/>
<path stroke="#fbdf25" vector-effect="non-scaling-stroke" d="
  M 242.73 235.13
  L 242.55 240.04
  A 1.00 0.99 0.9 0 1 241.55 241.00
  L 207.63 241.00
  A 1.00 1.00 0.0 0 1 206.63 240.04
  L 206.45 235.35"
/>
<path stroke="#ee8453" vector-effect="non-scaling-stroke" d="
  M 274.21 242.77
  C 269.62 254.96 254.73 258.16 246.03 248.10
  A 1.01 0.97 69.1 0 0 245.28 247.75
  L 204.17 247.75
  A 1.01 0.99 -68.5 0 0 203.43 248.08
  C 194.45 257.94 180.85 255.10 174.91 243.50"
/>
<path stroke="#fbd528" vector-effect="non-scaling-stroke" d="
  M 274.55 235.42
  Q 271.37 243.72 263.76 246.52
  C 254.38 249.98 246.20 243.81 242.73 235.13"
/>
<path stroke="#ffe938" vector-effect="non-scaling-stroke" d="
  M 242.73 235.13
  L 244.93 228.44"
/>
</g>
<path fill="#382b73" d="
  M 252.56 0.00
  L 259.81 0.00
  C 399.30 3.35 510.06 113.64 512.00 253.81
  L 512.00 258.56
  C 509.59 398.94 398.56 509.60 258.44 512.00
  L 253.19 512.00
  C 113.44 509.55 2.87 399.01 0.00 259.44
  L 0.00 253.19
  C 2.40 113.55 112.93 2.86 252.56 0.00
  Z
  M 477.39 256.00
  A 221.39 221.39 0.0 0 0 256.00 34.61
  A 221.39 221.39 0.0 0 0 34.61 256.00
  A 221.39 221.39 0.0 0 0 256.00 477.39
  A 221.39 221.39 0.0 0 0 477.39 256.00
  Z"
/>
<path fill="#473080" d="
  M 477.39 256.00
  A 221.39 221.39 0.0 0 1 256.00 477.39
  A 221.39 221.39 0.0 0 1 34.61 256.00
  A 221.39 221.39 0.0 0 1 256.00 34.61
  A 221.39 221.39 0.0 0 1 477.39 256.00
  Z
  M 206.25 115.46
  C 198.79 118.48 201.02 123.95 199.96 130.00
  Q 173.31 129.92 167.32 130.07
  C 150.11 130.48 134.68 142.07 130.95 159.39
  Q 130.02 163.72 130.13 172.82
  Q 130.31 186.38 130.25 199.96
  C 124.42 200.82 118.35 198.80 115.48 206.17
  Q 114.20 211.08 117.54 214.98
  Q 112.81 222.18 117.48 227.26
  C 120.70 230.75 125.79 230.67 130.21 230.00
  L 130.18 247.04
  C 123.59 247.45 117.68 246.99 115.38 253.63
  Q 114.24 258.97 118.00 262.46
  C 112.86 268.90 115.44 276.84 123.56 277.37
  Q 126.92 277.59 130.19 276.26
  L 130.00 294.46
  C 123.53 294.10 117.94 294.44 115.41 300.59
  Q 114.22 305.87 117.75 309.46
  Q 115.22 312.25 115.22 315.51
  C 115.23 323.51 122.57 325.59 129.19 324.19
  A 0.99 0.99 0.0 0 0 129.98 323.23
  L 130.04 318.75
  C 130.29 328.68 129.27 339.94 130.56 349.64
  Q 130.79 351.32 130.61 353.01
  Q 128.99 378.02 149.10 389.71
  C 155.01 393.15 161.49 394.43 168.25 394.45
  Q 183.82 394.48 199.25 394.51
  A 1.00 1.00 0.0 0 1 200.25 395.53
  Q 200.20 398.16 200.42 400.75
  C 200.99 407.32 206.67 412.14 213.20 408.34
  C 217.34 405.93 217.51 400.41 217.14 395.79
  A 1.00 0.99 87.9 0 1 218.14 394.71
  L 246.40 394.77
  A 1.00 1.00 0.0 0 1 247.40 395.72
  Q 247.50 397.64 247.54 399.55
  Q 247.61 402.72 248.14 404.23
  C 250.07 409.65 257.61 411.37 261.59 407.39
  C 264.49 404.50 264.98 399.81 264.23 395.84
  A 1.01 1.01 0.0 0 1 265.22 394.65
  L 293.52 394.79
  A 1.00 1.00 0.0 0 1 294.51 395.84
  Q 294.38 398.63 294.72 401.37
  C 296.18 413.33 311.58 411.21 311.54 401.00
  Q 311.52 397.27 311.67 395.44
  A 0.99 0.99 0.0 0 1 312.66 394.53
  Q 326.42 394.44 340.20 394.53
  Q 348.40 394.58 353.21 393.35
  C 368.83 389.37 380.39 376.82 381.65 359.83
  C 381.73 358.73 382.73 353.81 380.91 353.76
  Q 382.26 339.17 381.79 324.50
  Q 389.03 324.95 390.94 323.94
  Q 400.75 318.73 394.00 309.71
  Q 397.58 306.20 396.71 301.25
  C 394.70 294.42 388.36 294.12 381.77 294.33
  L 381.79 277.25
  Q 386.66 277.51 389.07 277.15
  C 396.19 276.10 399.80 267.51 393.75 262.71
  Q 397.58 259.33 396.71 254.25
  Q 392.56 245.00 381.76 247.32
  L 381.79 230.50
  C 388.38 229.85 396.54 230.59 396.78 221.54
  Q 396.88 217.83 393.50 215.71
  Q 397.97 211.99 396.54 206.20
  C 393.74 199.10 387.75 200.76 381.79 199.75
  Q 381.66 188.53 381.78 177.33
  Q 381.93 163.34 380.67 158.31
  C 376.88 143.20 363.28 131.19 347.50 130.22
  Q 338.30 129.66 311.77 130.08
  Q 314.29 115.22 300.79 115.23
  C 293.04 118.73 295.53 123.66 294.18 130.02
  L 265.00 129.96
  C 264.63 122.21 264.08 113.96 254.00 115.29
  C 247.12 117.35 247.46 123.25 246.96 130.00
  L 217.54 129.75
  C 217.79 121.99 216.54 113.54 206.25 115.46
  Z"
/>
<path fill="#e43d91" d="
  M 217.54 129.75
  L 217.50 154.71
  Q 214.71 155.28 211.83 154.90
  A 0.99 0.99 0.0 0 1 210.96 153.91
  Q 211.11 135.30 210.94 124.56
  C 210.87 119.57 208.74 119.10 206.25 115.46
  C 216.54 113.54 217.79 121.99 217.54 129.75
  Z"
/>
<path fill="#e43d91" d="
  M 265.00 129.96
  L 264.75 154.71
  Q 261.85 155.30 258.86 154.87
  A 1.00 0.99 4.7 0 1 258.01 153.88
  Q 258.02 138.47 257.97 123.06
  Q 257.95 119.56 254.68 117.06
  A 1.00 0.99 -72.0 0 1 254.29 116.29
  Q 254.28 115.71 254.00 115.29
  C 264.08 113.96 264.63 122.21 265.00 129.96
  Z"
/>
<path fill="#e43d91" d="
  M 311.77 130.08
  L 311.78 154.69
  Q 309.04 155.32 306.07 154.90
  A 1.01 1.00 4.6 0 1 305.21 153.90
  Q 305.42 129.82 305.18 124.06
  Q 305.01 119.68 300.79 115.23
  Q 314.29 115.22 311.77 130.08
  Z"
/>
<path fill="#ef5a9d" d="
  M 254.00 115.29
  Q 254.28 115.71 254.29 116.29
  A 1.00 0.99 -72.0 0 0 254.68 117.06
  Q 257.95 119.56 257.97 123.06
  Q 258.02 138.47 258.01 153.88
  A 1.00 0.99 4.7 0 0 258.86 154.87
  Q 261.85 155.30 264.75 154.71
  Q 279.13 155.29 293.46 154.91
  A 1.00 1.00 0.0 0 0 294.43 153.90
  L 294.18 130.02
  C 295.53 123.66 293.04 118.73 300.79 115.23
  Q 305.01 119.68 305.18 124.06
  Q 305.42 129.82 305.21 153.90
  A 1.01 1.00 4.6 0 0 306.07 154.90
  Q 309.04 155.32 311.78 154.69
  C 319.21 155.14 328.08 154.08 334.88 156.01
  Q 353.12 161.20 356.94 181.20
  L 356.00 181.29
  C 355.51 181.04 355.15 180.90 354.91 180.37
  Q 348.84 167.00 336.13 163.06
  Q 331.06 161.49 317.71 161.49
  Q 259.12 161.50 200.54 161.50
  Q 200.84 158.04 200.00 154.71
  L 199.96 130.00
  C 201.02 123.95 198.79 118.48 206.25 115.46
  C 208.74 119.10 210.87 119.57 210.94 124.56
  Q 211.11 135.30 210.96 153.91
  A 0.99 0.99 0.0 0 0 211.83 154.90
  Q 214.71 155.28 217.50 154.71
  L 246.15 154.89
  A 1.00 0.99 90.0 0 0 247.15 153.88
  L 246.96 130.00
  C 247.46 123.25 247.12 117.35 254.00 115.29
  Z"
/>
<path fill="#e6e7e8" d="
  M 217.54 129.75
  L 246.96 130.00
  L 247.15 153.88
  A 1.00 0.99 90.0 0 1 246.15 154.89
  L 217.50 154.71
  L 217.54 129.75
  Z"
/>
<path fill="#e6e7e8" d="
  M 199.96 130.00
  L 200.00 154.71
  L 180.71 155.06
  C 164.17 158.54 155.03 170.03 155.01 186.53
  Q 155.00 192.74 154.97 198.97
  A 1.01 1.00 -89.7 0 1 153.97 199.97
  L 130.25 199.96
  Q 130.31 186.38 130.13 172.82
  Q 130.02 163.72 130.95 159.39
  C 134.68 142.07 150.11 130.48 167.32 130.07
  Q 173.31 129.92 199.96 130.00
  Z"
/>
<path fill="#e6e7e8" d="
  M 265.00 129.96
  L 294.18 130.02
  L 294.43 153.90
  A 1.00 1.00 0.0 0 1 293.46 154.91
  Q 279.13 155.29 264.75 154.71
  L 265.00 129.96
  Z"
/>
<path fill="#e6e7e8" d="
  M 311.77 130.08
  Q 338.30 129.66 347.50 130.22
  C 363.28 131.19 376.88 143.20 380.67 158.31
  Q 381.93 163.34 381.78 177.33
  Q 381.66 188.53 381.79 199.75
  L 357.29 200.00
  L 356.97 194.63
  L 356.94 181.20
  Q 353.12 161.20 334.88 156.01
  C 328.08 154.08 319.21 155.14 311.78 154.69
  L 311.77 130.08
  Z"
/>
<path fill="#fede3a" d="
  M 200.00 154.71
  Q 200.84 158.04 200.54 161.50
  Q 199.76 169.85 200.64 178.17
  A 0.99 0.96 -73.3 0 0 200.97 178.81
  Q 205.67 183.03 206.61 189.22
  Q 205.38 190.39 204.66 191.99
  C 200.97 200.13 190.97 203.04 183.30 198.90
  Q 177.58 195.82 174.76 189.22
  Q 175.61 182.74 181.04 177.75
  Q 186.82 174.72 193.40 175.21
  A 1.00 1.00 0.0 0 0 194.47 174.22
  L 194.52 162.58
  A 1.00 0.99 2.9 0 0 193.62 161.59
  Q 187.26 160.91 180.96 162.23
  L 180.71 155.06
  L 200.00 154.71
  Z"
/>
<path fill="#ef5a9d" d="
  M 180.71 155.06
  L 180.96 162.23
  L 181.04 177.75
  Q 175.61 182.74 174.76 189.22
  Q 173.91 192.64 174.68 195.51
  Q 174.03 206.41 182.22 211.35
  C 187.88 214.76 194.83 214.51 200.15 210.63
  Q 207.35 205.40 206.35 196.28
  Q 207.00 192.87 206.61 189.22
  Q 205.67 183.03 200.97 178.81
  A 0.99 0.96 -73.3 0 1 200.64 178.17
  Q 199.76 169.85 200.54 161.50
  Q 259.12 161.50 317.71 161.49
  Q 331.06 161.49 336.13 163.06
  Q 348.84 167.00 354.91 180.37
  C 355.15 180.90 355.51 181.04 356.00 181.29
  L 273.42 181.49
  L 272.00 181.49
  A 1.00 1.00 0.0 0 1 271.24 181.14
  C 261.68 169.81 245.43 175.16 242.54 189.50
  L 242.84 196.75
  Q 242.86 208.82 252.73 212.57
  C 259.51 215.14 266.77 213.25 271.30 207.62
  A 1.01 1.00 19.3 0 1 272.08 207.25
  L 355.90 207.25
  A 1.00 1.00 0.0 0 0 356.88 206.45
  Q 357.45 203.66 356.71 201.00
  L 357.29 200.00
  L 381.79 199.75
  C 387.75 200.76 393.74 199.10 396.54 206.20
  Q 392.92 210.50 389.24 210.77
  Q 381.67 211.32 358.07 210.96
  A 0.99 0.99 0.0 0 0 357.07 211.79
  Q 356.57 214.77 357.50 217.54
  Q 356.60 220.57 357.04 223.75
  L 357.01 246.17
  A 1.00 1.00 0.0 0 0 358.01 247.17
  L 381.76 247.32
  Q 392.56 245.00 396.71 254.25
  L 395.89 254.21
  A 0.99 0.99 0.0 0 0 395.06 254.58
  Q 392.26 258.09 387.49 258.07
  Q 372.83 258.01 358.09 258.01
  A 1.00 0.99 5.2 0 0 357.11 258.82
  Q 356.55 261.85 357.50 264.71
  Q 356.58 267.36 357.04 270.69
  L 357.10 293.30
  A 0.99 0.99 0.0 0 0 358.09 294.29
  L 381.77 294.33
  C 388.36 294.12 394.70 294.42 396.71 301.25
  L 395.95 301.21
  A 1.02 1.02 0.0 0 0 395.11 301.60
  Q 392.32 305.24 387.48 305.24
  Q 372.77 305.25 358.00 305.29
  A 0.99 0.98 3.6 0 0 357.02 306.15
  Q 356.61 309.05 357.52 311.84
  Q 356.59 314.51 357.04 317.75
  Q 357.15 318.93 356.76 319.92
  Q 352.61 339.17 334.91 344.19
  C 328.99 345.87 321.55 345.55 315.00 345.54
  L 314.75 345.46
  L 314.86 255.61
  Q 320.46 251.53 320.92 243.49
  Q 321.00 242.12 320.25 241.96
  Q 321.18 238.89 320.45 235.65
  C 317.11 217.14 290.96 217.21 288.59 235.59
  Q 287.88 239.96 288.94 243.74
  Q 287.66 252.32 295.19 256.58
  L 295.22 345.36
  L 200.54 345.50
  L 200.54 306.75
  L 243.82 306.61
  A 1.00 1.00 0.0 0 1 244.58 306.96
  C 249.73 312.95 257.55 314.76 264.68 311.25
  Q 273.17 307.08 273.04 296.01
  Q 273.93 291.97 273.25 287.96
  C 270.31 273.31 253.49 270.07 243.87 281.13
  Q 220.13 280.92 196.65 280.99
  C 185.29 281.02 180.98 286.25 180.99 297.44
  Q 181.03 321.22 180.96 345.00
  L 180.71 345.25
  Q 160.43 340.90 155.30 320.91
  Q 154.81 319.57 154.96 318.00
  Q 155.41 314.81 154.50 311.79
  Q 155.46 309.01 154.89 306.06
  A 1.00 0.99 -5.2 0 0 153.91 305.25
  Q 139.08 305.26 124.26 305.23
  Q 119.45 305.22 115.41 300.59
  C 117.94 294.44 123.53 294.10 130.00 294.46
  L 153.78 294.27
  A 1.00 1.00 0.0 0 0 154.77 293.27
  L 154.96 270.75
  L 154.71 264.75
  Q 155.39 261.85 154.87 258.83
  A 1.01 1.01 0.0 0 0 153.88 258.00
  Q 139.94 258.02 126.02 257.98
  Q 122.46 257.96 120.30 256.98
  Q 117.61 255.76 115.38 253.63
  C 117.68 246.99 123.59 247.45 130.18 247.04
  L 153.90 247.16
  A 1.00 1.00 0.0 0 0 154.90 246.16
  L 154.96 223.75
  L 154.71 217.50
  Q 155.33 214.75 154.88 211.82
  A 1.01 1.00 -5.0 0 0 153.87 210.98
  Q 139.42 211.16 124.99 210.80
  Q 121.68 210.72 119.74 209.68
  Q 117.35 208.39 115.48 206.17
  C 118.35 198.80 124.42 200.82 130.25 199.96
  L 153.97 199.97
  A 1.01 1.00 -89.7 0 0 154.97 198.97
  Q 155.00 192.74 155.01 186.53
  C 155.03 170.03 164.17 158.54 180.71 155.06
  Z
  M 174.74 235.80
  Q 174.04 239.85 174.91 243.50
  Q 174.53 251.43 179.53 256.00
  C 186.30 262.21 197.28 261.67 203.18 254.21
  A 1.01 1.00 18.9 0 1 203.97 253.83
  L 245.28 254.03
  A 0.98 0.96 -19.0 0 1 246.04 254.39
  C 253.56 263.37 266.97 261.82 272.82 251.83
  Q 275.40 247.40 274.21 242.77
  Q 275.46 239.27 274.55 235.42
  C 271.83 220.29 254.44 217.51 244.93 228.44
  L 204.10 228.42
  C 194.59 217.15 177.11 220.55 174.74 235.80
  Z"
/>
<path fill="#fff335" d="
  M 181.04 177.75
  L 180.96 162.23
  Q 187.26 160.91 193.62 161.59
  A 1.00 0.99 2.9 0 1 194.52 162.58
  L 194.47 174.22
  A 1.00 1.00 0.0 0 1 193.40 175.21
  Q 186.82 174.72 181.04 177.75
  Z"
/>
<path fill="#fede3a" d="
  M 273.42 181.49
  Q 272.90 185.24 274.46 188.75
  C 268.91 203.70 249.25 205.69 243.63 189.79
  C 243.41 189.16 243.06 188.99 242.54 189.50
  C 245.43 175.16 261.68 169.81 271.24 181.14
  A 1.00 1.00 0.0 0 0 272.00 181.49
  L 273.42 181.49
  Z"
/>
<path fill="#fff335" d="
  M 356.00 181.29
  L 356.94 181.20
  L 356.97 194.63
  L 275.62 194.49
  A 1.00 0.99 -0.9 0 1 274.62 193.53
  L 274.46 188.75
  Q 272.90 185.24 273.42 181.49
  L 356.00 181.29
  Z"
/>
<path fill="#f7cb15" d="
  M 274.46 188.75
  L 274.62 193.53
  A 1.00 0.99 -0.9 0 0 275.62 194.49
  L 356.97 194.63
  L 357.29 200.00
  L 356.71 201.00
  L 272.25 200.99
  A 1.01 0.97 -69.1 0 0 271.50 201.34
  C 262.53 211.61 248.80 208.47 242.84 196.75
  L 242.54 189.50
  C 243.06 188.99 243.41 189.16 243.63 189.79
  C 249.25 205.69 268.91 203.70 274.46 188.75
  Z"
/>
<path fill="#f7cb15" d="
  M 206.61 189.22
  Q 207.00 192.87 206.35 196.28
  C 199.79 211.51 180.30 211.23 174.68 195.51
  Q 173.91 192.64 174.76 189.22
  Q 177.58 195.82 183.30 198.90
  C 190.97 203.04 200.97 200.13 204.66 191.99
  Q 205.38 190.39 206.61 189.22
  Z"
/>
<path fill="#e43d91" d="
  M 174.68 195.51
  C 180.30 211.23 199.79 211.51 206.35 196.28
  Q 207.35 205.40 200.15 210.63
  C 194.83 214.51 187.88 214.76 182.22 211.35
  Q 174.03 206.41 174.68 195.51
  Z"
/>
<path fill="#e43d91" d="
  M 242.84 196.75
  C 248.80 208.47 262.53 211.61 271.50 201.34
  A 1.01 0.97 -69.1 0 1 272.25 200.99
  L 356.71 201.00
  Q 357.45 203.66 356.88 206.45
  A 1.00 1.00 0.0 0 1 355.90 207.25
  L 272.08 207.25
  A 1.01 1.00 19.3 0 0 271.30 207.62
  C 266.77 213.25 259.51 215.14 252.73 212.57
  Q 242.86 208.82 242.84 196.75
  Z"
/>
<path fill="#e43d91" d="
  M 115.48 206.17
  Q 117.35 208.39 119.74 209.68
  Q 121.68 210.72 124.99 210.80
  Q 139.42 211.16 153.87 210.98
  A 1.01 1.00 -5.0 0 1 154.88 211.82
  Q 155.33 214.75 154.71 217.50
  L 130.00 217.54
  Q 123.14 218.51 117.54 214.98
  Q 114.20 211.08 115.48 206.17
  Z"
/>
<path fill="#e43d91" d="
  M 396.54 206.20
  Q 397.97 211.99 393.50 215.71
  Q 388.24 218.31 382.25 217.54
  L 357.50 217.54
  Q 356.57 214.77 357.07 211.79
  A 0.99 0.99 0.0 0 1 358.07 210.96
  Q 381.67 211.32 389.24 210.77
  Q 392.92 210.50 396.54 206.20
  Z"
/>
<path fill="#382b73" d="
  M 117.54 214.98
  Q 123.14 218.51 130.00 217.54
  L 130.04 223.75
  L 130.21 230.00
  C 125.79 230.67 120.70 230.75 117.48 227.26
  Q 112.81 222.18 117.54 214.98
  Z"
/>
<path fill="#382b73" d="
  M 393.50 215.71
  Q 396.88 217.83 396.78 221.54
  C 396.54 230.59 388.38 229.85 381.79 230.50
  L 381.96 224.00
  L 382.25 217.54
  Q 388.24 218.31 393.50 215.71
  Z"
/>
<path fill="#bcbec0" d="
  M 130.00 217.54
  L 154.71 217.50
  L 154.96 223.75
  L 130.04 223.75
  L 130.00 217.54
  Z"
/>
<path fill="#bcbec0" d="
  M 357.50 217.54
  L 382.25 217.54
  L 381.96 224.00
  L 357.04 223.75
  Q 356.60 220.57 357.50 217.54
  Z"
/>
<path fill="#fede3a" d="
  M 204.10 228.42
  L 206.45 235.35
  C 202.94 244.76 193.74 250.15 184.19 245.88
  Q 177.81 243.03 174.74 235.80
  C 177.11 220.55 194.59 217.15 204.10 228.42
  Z"
/>
<path fill="#fede3a" d="
  M 274.55 235.42
  Q 271.37 243.72 263.76 246.52
  C 254.38 249.98 246.20 243.81 242.73 235.13
  L 244.93 228.44
  C 254.44 217.51 271.83 220.29 274.55 235.42
  Z"
/>
<path fill="#fede3a" d="
  M 320.45 235.65
  Q 319.24 237.08 318.40 238.72
  C 314.70 245.94 306.64 249.20 299.03 246.29
  Q 291.74 243.51 288.59 235.59
  C 290.96 217.21 317.11 217.14 320.45 235.65
  Z"
/>
<path fill="#e6e7e8" d="
  M 154.96 223.75
  L 154.90 246.16
  A 1.00 1.00 0.0 0 1 153.90 247.16
  L 130.18 247.04
  L 130.21 230.00
  L 130.04 223.75
  L 154.96 223.75
  Z"
/>
<path fill="#e6e7e8" d="
  M 357.04 223.75
  L 381.96 224.00
  L 381.79 230.50
  L 381.76 247.32
  L 358.01 247.17
  A 1.00 1.00 0.0 0 1 357.01 246.17
  L 357.04 223.75
  Z"
/>
<path fill="#fff335" d="
  M 204.10 228.42
  L 244.93 228.44
  L 242.73 235.13
  L 242.55 240.04
  A 1.00 0.99 0.9 0 1 241.55 241.00
  L 207.63 241.00
  A 1.00 1.00 0.0 0 1 206.63 240.04
  L 206.45 235.35
  L 204.10 228.42
  Z"
/>
<path fill="#f7cb15" d="
  M 242.73 235.13
  C 246.20 243.81 254.38 249.98 263.76 246.52
  Q 271.37 243.72 274.55 235.42
  Q 275.46 239.27 274.21 242.77
  C 269.62 254.96 254.73 258.16 246.03 248.10
  A 1.01 0.97 69.1 0 0 245.28 247.75
  L 204.17 247.75
  A 1.01 0.99 -68.5 0 0 203.43 248.08
  C 194.45 257.94 180.85 255.10 174.91 243.50
  Q 174.04 239.85 174.74 235.80
  Q 177.81 243.03 184.19 245.88
  C 193.74 250.15 202.94 244.76 206.45 235.35
  L 206.63 240.04
  A 1.00 1.00 0.0 0 0 207.63 241.00
  L 241.55 241.00
  A 1.00 0.99 0.9 0 0 242.55 240.04
  L 242.73 235.13
  Z"
/>
<path fill="#f7cb15" d="
  M 288.59 235.59
  Q 291.74 243.51 299.03 246.29
  C 306.64 249.20 314.70 245.94 318.40 238.72
  Q 319.24 237.08 320.45 235.65
  Q 321.18 238.89 320.25 241.96
  Q 318.63 247.15 314.65 250.63
  Q 309.33 254.02 303.03 253.84
  A 1.00 1.00 0.0 0 0 302.00 254.84
  L 302.00 344.49
  A 1.00 1.00 0.0 0 0 303.00 345.49
  L 314.75 345.46
  L 315.00 345.54
  L 315.00 356.71
  L 311.96 357.25
  L 305.25 357.04
  L 295.04 356.75
  L 295.22 345.36
  L 295.19 256.58
  L 295.22 252.04
  A 1.02 1.01 -69.1 0 0 294.89 251.29
  Q 291.43 248.12 288.94 243.74
  Q 287.88 239.96 288.59 235.59
  Z"
/>
<path fill="#e43d91" d="
  M 320.25 241.96
  Q 321.00 242.12 320.92 243.49
  Q 320.46 251.53 314.86 255.61
  L 314.65 250.63
  Q 318.63 247.15 320.25 241.96
  Z"
/>
<path fill="#e43d91" d="
  M 274.21 242.77
  Q 275.40 247.40 272.82 251.83
  C 266.97 261.82 253.56 263.37 246.04 254.39
  A 0.98 0.96 -19.0 0 0 245.28 254.03
  L 203.97 253.83
  A 1.01 1.00 18.9 0 0 203.18 254.21
  C 197.28 261.67 186.30 262.21 179.53 256.00
  Q 174.53 251.43 174.91 243.50
  C 180.85 255.10 194.45 257.94 203.43 248.08
  A 1.01 0.99 -68.5 0 1 204.17 247.75
  L 245.28 247.75
  A 1.01 0.97 69.1 0 1 246.03 248.10
  C 254.73 258.16 269.62 254.96 274.21 242.77
  Z"
/>
<path fill="#e43d91" d="
  M 288.94 243.74
  Q 291.43 248.12 294.89 251.29
  A 1.02 1.01 -69.1 0 1 295.22 252.04
  L 295.19 256.58
  Q 287.66 252.32 288.94 243.74
  Z"
/>
<path fill="#fff335" d="
  M 314.65 250.63
  L 314.86 255.61
  L 314.75 345.46
  L 303.00 345.49
  A 1.00 1.00 0.0 0 1 302.00 344.49
  L 302.00 254.84
  A 1.00 1.00 0.0 0 1 303.03 253.84
  Q 309.33 254.02 314.65 250.63
  Z"
/>
<path fill="#e43d91" d="
  M 115.38 253.63
  Q 117.61 255.76 120.30 256.98
  Q 122.46 257.96 126.02 257.98
  Q 139.94 258.02 153.88 258.00
  A 1.01 1.01 0.0 0 1 154.87 258.83
  Q 155.39 261.85 154.71 264.75
  L 129.75 264.79
  Q 123.40 265.60 118.00 262.46
  Q 114.24 258.97 115.38 253.63
  Z"
/>
<path fill="#e43d91" d="
  M 396.71 254.25
  Q 397.58 259.33 393.75 262.71
  Q 388.38 265.52 382.25 264.79
  L 357.50 264.71
  Q 356.55 261.85 357.11 258.82
  A 1.00 0.99 5.2 0 1 358.09 258.01
  Q 372.83 258.01 387.49 258.07
  Q 392.26 258.09 395.06 254.58
  A 0.99 0.99 0.0 0 1 395.89 254.21
  L 396.71 254.25
  Z"
/>
<path fill="#382b73" d="
  M 118.00 262.46
  Q 123.40 265.60 129.75 264.79
  L 130.04 271.25
  L 130.19 276.26
  Q 126.92 277.59 123.56 277.37
  C 115.44 276.84 112.86 268.90 118.00 262.46
  Z"
/>
<path fill="#382b73" d="
  M 393.75 262.71
  C 399.80 267.51 396.19 276.10 389.07 277.15
  Q 386.66 277.51 381.79 277.25
  L 381.96 271.00
  L 382.25 264.79
  Q 388.38 265.52 393.75 262.71
  Z"
/>
<path fill="#bcbec0" d="
  M 129.75 264.79
  L 154.71 264.75
  L 154.96 270.75
  L 130.04 271.25
  L 129.75 264.79
  Z"
/>
<path fill="#bcbec0" d="
  M 357.50 264.71
  L 382.25 264.79
  L 381.96 271.00
  L 357.04 270.69
  Q 356.58 267.36 357.50 264.71
  Z"
/>
<path fill="#e6e7e8" d="
  M 357.04 270.69
  L 381.96 271.00
  L 381.79 277.25
  L 381.77 294.33
  L 358.09 294.29
  A 0.99 0.99 0.0 0 1 357.10 293.30
  L 357.04 270.69
  Z"
/>
<path fill="#e6e7e8" d="
  M 154.96 270.75
  L 154.77 293.27
  A 1.00 1.00 0.0 0 1 153.78 294.27
  L 130.00 294.46
  L 130.19 276.26
  L 130.04 271.25
  L 154.96 270.75
  Z"
/>
<path fill="#fede3a" d="
  M 273.25 287.96
  C 271.71 289.54 271.69 291.48 270.58 293.00
  C 261.91 304.84 246.41 301.13 241.48 288.12
  Q 242.09 284.69 243.87 281.13
  C 253.49 270.07 270.31 273.31 273.25 287.96
  Z"
/>
<path fill="#fff335" d="
  M 243.87 281.13
  Q 242.09 284.69 241.48 288.12
  Q 240.84 291.18 241.41 294.05
  A 1.00 1.00 0.0 0 1 240.43 295.25
  L 196.52 295.25
  A 1.00 1.00 0.0 0 0 195.52 296.25
  L 195.46 344.24
  A 1.01 0.99 -3.2 0 1 194.56 345.23
  Q 187.68 345.95 180.96 345.00
  Q 181.03 321.22 180.99 297.44
  C 180.98 286.25 185.29 281.02 196.65 280.99
  Q 220.13 280.92 243.87 281.13
  Z"
/>
<path fill="#f7cb15" d="
  M 273.25 287.96
  Q 273.93 291.97 273.04 296.01
  C 267.14 307.90 253.30 310.88 244.28 300.56
  A 1.02 1.00 -20.3 0 0 243.52 300.22
  L 201.65 300.32
  A 0.99 0.99 0.0 0 0 200.66 301.29
  L 200.54 306.75
  L 200.54 345.50
  L 200.46 356.75
  L 200.00 357.04
  C 196.41 357.02 183.23 357.88 180.79 356.50
  L 180.71 345.25
  L 180.96 345.00
  Q 187.68 345.95 194.56 345.23
  A 1.01 0.99 -3.2 0 0 195.46 344.24
  L 195.52 296.25
  A 1.00 1.00 0.0 0 1 196.52 295.25
  L 240.43 295.25
  A 1.00 1.00 0.0 0 0 241.41 294.05
  Q 240.84 291.18 241.48 288.12
  C 246.41 301.13 261.91 304.84 270.58 293.00
  C 271.69 291.48 271.71 289.54 273.25 287.96
  Z"
/>
<path fill="#e43d91" d="
  M 273.04 296.01
  Q 273.17 307.08 264.68 311.25
  C 257.55 314.76 249.73 312.95 244.58 306.96
  A 1.00 1.00 0.0 0 0 243.82 306.61
  L 200.54 306.75
  L 200.66 301.29
  A 0.99 0.99 0.0 0 1 201.65 300.32
  L 243.52 300.22
  A 1.02 1.00 -20.3 0 1 244.28 300.56
  C 253.30 310.88 267.14 307.90 273.04 296.01
  Z"
/>
<path fill="#e43d91" d="
  M 115.41 300.59
  Q 119.45 305.22 124.26 305.23
  Q 139.08 305.26 153.91 305.25
  A 1.00 0.99 -5.2 0 1 154.89 306.06
  Q 155.46 309.01 154.50 311.79
  L 130.00 312.04
  C 125.45 311.37 122.12 312.62 117.75 309.46
  Q 114.22 305.87 115.41 300.59
  Z"
/>
<path fill="#e43d91" d="
  M 396.71 301.25
  Q 397.58 306.20 394.00 309.71
  C 389.83 312.49 385.92 311.38 382.00 312.04
  L 357.52 311.84
  Q 356.61 309.05 357.02 306.15
  A 0.99 0.98 3.6 0 1 358.00 305.29
  Q 372.77 305.25 387.48 305.24
  Q 392.32 305.24 395.11 301.60
  A 1.02 1.02 0.0 0 1 395.95 301.21
  L 396.71 301.25
  Z"
/>
<path fill="#382b73" d="
  M 117.75 309.46
  C 122.12 312.62 125.45 311.37 130.00 312.04
  L 130.04 318.25
  L 130.04 318.75
  L 129.98 323.23
  A 0.99 0.99 0.0 0 1 129.19 324.19
  C 122.57 325.59 115.23 323.51 115.22 315.51
  Q 115.22 312.25 117.75 309.46
  Z"
/>
<path fill="#382b73" d="
  M 394.00 309.71
  Q 400.75 318.73 390.94 323.94
  Q 389.03 324.95 381.79 324.50
  L 381.85 318.28
  L 382.00 312.04
  C 385.92 311.38 389.83 312.49 394.00 309.71
  Z"
/>
<path fill="#bcbec0" d="
  M 154.50 311.79
  Q 155.41 314.81 154.96 318.00
  L 130.04 318.25
  L 130.00 312.04
  L 154.50 311.79
  Z"
/>
<path fill="#bcbec0" d="
  M 357.52 311.84
  L 382.00 312.04
  L 381.85 318.28
  L 357.04 317.75
  Q 356.59 314.51 357.52 311.84
  Z"
/>
<path fill="#e6e7e8" d="
  M 357.04 317.75
  L 381.85 318.28
  L 381.79 324.50
  Q 382.26 339.17 380.91 353.76
  Q 373.58 376.04 352.91 380.76
  C 342.11 383.23 325.09 382.00 312.04 382.00
  L 311.79 363.75
  Q 320.96 363.31 325.54 363.36
  C 342.17 363.54 357.33 351.15 356.46 333.75
  Q 357.44 326.96 356.76 319.92
  Q 357.15 318.93 357.04 317.75
  Z"
/>
<path fill="#e6e7e8" d="
  M 154.96 318.00
  Q 154.81 319.57 155.30 320.91
  Q 154.71 327.20 155.22 333.24
  Q 156.21 353.13 172.58 360.60
  C 180.45 364.19 191.18 363.87 199.96 363.25
  L 199.96 382.00
  C 186.75 382.00 169.31 383.45 157.99 380.49
  Q 137.73 375.20 130.61 353.01
  Q 130.79 351.32 130.56 349.64
  C 129.27 339.94 130.29 328.68 130.04 318.75
  L 130.04 318.25
  L 154.96 318.00
  Z"
/>
<path fill="#e43d91" d="
  M 356.76 319.92
  Q 357.44 326.96 356.46 333.75
  Q 350.97 352.44 331.94 356.69
  Q 327.31 357.72 315.00 356.71
  L 315.00 345.54
  C 321.55 345.55 328.99 345.87 334.91 344.19
  Q 352.61 339.17 356.76 319.92
  Z"
/>
<path fill="#e43d91" d="
  M 155.30 320.91
  Q 160.43 340.90 180.71 345.25
  L 180.79 356.50
  Q 180.62 356.86 180.24 356.78
  Q 160.80 352.51 155.22 333.24
  Q 154.71 327.20 155.30 320.91
  Z"
/>
<path fill="#bcbec0" d="
  M 155.22 333.24
  Q 160.80 352.51 180.24 356.78
  Q 180.62 356.86 180.79 356.50
  C 183.23 357.88 196.41 357.02 200.00 357.04
  L 199.96 363.25
  C 191.18 363.87 180.45 364.19 172.58 360.60
  Q 156.21 353.13 155.22 333.24
  Z"
/>
<path fill="#bcbec0" d="
  M 356.46 333.75
  C 357.33 351.15 342.17 363.54 325.54 363.36
  Q 320.96 363.31 311.79 363.75
  L 311.96 357.25
  L 315.00 356.71
  Q 327.31 357.72 331.94 356.69
  Q 350.97 352.44 356.46 333.75
  Z"
/>
<path fill="#e43d91" d="
  M 295.22 345.36
  L 295.04 356.75
  L 294.00 357.04
  L 265.81 357.06
  A 1.00 1.00 0.0 0 0 264.81 358.06
  L 264.79 363.75
  L 264.79 382.00
  C 265.32 389.76 263.47 398.51 253.57 396.62
  Q 255.68 394.44 256.92 391.87
  Q 257.95 389.73 257.97 386.31
  Q 258.05 372.31 257.98 358.22
  A 1.01 1.01 0.0 0 0 256.98 357.22
  L 247.27 357.19
  L 218.61 357.05
  A 1.00 1.00 0.0 0 0 217.61 358.04
  L 217.54 363.50
  L 217.34 381.97
  Q 220.09 394.53 208.50 397.07
  Q 207.91 397.20 206.81 396.67
  L 210.70 390.63
  A 1.02 0.98 -29.7 0 0 210.86 390.09
  L 211.07 357.84
  A 1.01 1.00 86.7 0 0 209.95 356.84
  Q 205.08 357.39 200.46 356.75
  L 200.54 345.50
  L 295.22 345.36
  Z"
/>
<path fill="#382b73" d="
  M 130.61 353.01
  Q 137.73 375.20 157.99 380.49
  C 169.31 383.45 186.75 382.00 199.96 382.00
  C 200.99 388.02 198.81 394.39 206.81 396.67
  Q 207.91 397.20 208.50 397.07
  Q 220.09 394.53 217.34 381.97
  L 247.00 381.96
  C 247.74 388.03 246.64 394.16 253.57 396.62
  C 263.47 398.51 265.32 389.76 264.79 382.00
  L 294.41 382.01
  Q 292.78 392.22 300.53 396.71
  Q 308.51 397.78 311.05 391.56
  C 312.15 388.86 311.59 385.19 312.04 382.00
  C 325.09 382.00 342.11 383.23 352.91 380.76
  Q 373.58 376.04 380.91 353.76
  C 382.73 353.81 381.73 358.73 381.65 359.83
  C 380.39 376.82 368.83 389.37 353.21 393.35
  Q 348.40 394.58 340.20 394.53
  Q 326.42 394.44 312.66 394.53
  A 0.99 0.99 0.0 0 0 311.67 395.44
  Q 311.52 397.27 311.54 401.00
  C 311.58 411.21 296.18 413.33 294.72 401.37
  Q 294.38 398.63 294.51 395.84
  A 1.00 1.00 0.0 0 0 293.52 394.79
  L 265.22 394.65
  A 1.01 1.01 0.0 0 0 264.23 395.84
  C 264.98 399.81 264.49 404.50 261.59 407.39
  C 257.61 411.37 250.07 409.65 248.14 404.23
  Q 247.61 402.72 247.54 399.55
  Q 247.50 397.64 247.40 395.72
  A 1.00 1.00 0.0 0 0 246.40 394.77
  L 218.14 394.71
  A 1.00 0.99 87.9 0 0 217.14 395.79
  C 217.51 400.41 217.34 405.93 213.20 408.34
  C 206.67 412.14 200.99 407.32 200.42 400.75
  Q 200.20 398.16 200.25 395.53
  A 1.00 1.00 0.0 0 0 199.25 394.51
  Q 183.82 394.48 168.25 394.45
  C 161.49 394.43 155.01 393.15 149.10 389.71
  Q 128.99 378.02 130.61 353.01
  Z"
/>
<path fill="#ef5a9d" d="
  M 200.46 356.75
  Q 205.08 357.39 209.95 356.84
  A 1.01 1.00 86.7 0 1 211.07 357.84
  L 210.86 390.09
  A 1.02 0.98 -29.7 0 1 210.70 390.63
  L 206.81 396.67
  C 198.81 394.39 200.99 388.02 199.96 382.00
  L 199.96 363.25
  L 200.00 357.04
  L 200.46 356.75
  Z"
/>
<path fill="#ef5a9d" d="
  M 295.04 356.75
  L 305.25 357.04
  Q 305.27 372.15 305.22 387.24
  Q 305.20 392.54 300.53 396.71
  Q 292.78 392.22 294.41 382.01
  L 294.21 363.25
  Q 294.84 360.12 294.00 357.04
  L 295.04 356.75
  Z"
/>
<path fill="#bcbec0" d="
  M 247.27 357.19
  L 247.00 363.46
  L 217.54 363.50
  L 217.61 358.04
  A 1.00 1.00 0.0 0 1 218.61 357.05
  L 247.27 357.19
  Z"
/>
<path fill="#ef5a9d" d="
  M 253.57 396.62
  C 246.64 394.16 247.74 388.03 247.00 381.96
  Q 247.62 372.71 247.00 363.46
  L 247.27 357.19
  L 256.98 357.22
  A 1.01 1.01 0.0 0 1 257.98 358.22
  Q 258.05 372.31 257.97 386.31
  Q 257.95 389.73 256.92 391.87
  Q 255.68 394.44 253.57 396.62
  Z"
/>
<path fill="#bcbec0" d="
  M 294.00 357.04
  Q 294.84 360.12 294.21 363.25
  L 264.79 363.75
  L 264.81 358.06
  A 1.00 1.00 0.0 0 1 265.81 357.06
  L 294.00 357.04
  Z"
/>
<path fill="#e43d91" d="
  M 305.25 357.04
  L 311.96 357.25
  L 311.79 363.75
  L 312.04 382.00
  C 311.59 385.19 312.15 388.86 311.05 391.56
  Q 308.51 397.78 300.53 396.71
  Q 305.20 392.54 305.22 387.24
  Q 305.27 372.15 305.25 357.04
  Z"
/>
<path fill="#e6e7e8" d="
  M 294.21 363.25
  L 294.41 382.01
  L 264.79 382.00
  L 264.79 363.75
  L 294.21 363.25
  Z"
/>
<path fill="#e6e7e8" d="
  M 217.54 363.50
  L 247.00 363.46
  Q 247.62 372.71 247.00 381.96
  L 217.34 381.97
  L 217.54 363.50
  Z"
/>
</svg>
