<?xml version="1.0" encoding="UTF-8" standalone="no"?>
<!DOCTYPE svg PUBLIC "-//W3C//DTD SVG 1.1//EN" "http://www.w3.org/Graphics/SVG/1.1/DTD/svg11.dtd">
<svg xmlns="http://www.w3.org/2000/svg" version="1.1" viewBox="0 0 96 96">
<g stroke-width="2.00" fill="none" stroke-linecap="butt">
<path stroke="#5453ff" vector-effect="non-scaling-stroke" d="
  M 84.75 35.46
  Q 83.87 35.67 83.27 36.49
  A 0.41 0.40 29.7 0 1 82.78 36.62
  Q 82.47 36.49 82.21 36.75"
/>
<path stroke="#5453ff" vector-effect="non-scaling-stroke" d="
  M 17.79 28.50
  Q 16.94 27.04 15.25 27.21"
/>
<path stroke="#92bfff" vector-effect="non-scaling-stroke" d="
  M 70.01 23.53
  Q 48.11 24.81 26.24 23.32"
/>
<path stroke="#adb9ff" vector-effect="non-scaling-stroke" d="
  M 74.71 28.75
  Q 48.37 29.12 22.01 28.27"
/>
<path stroke="#cab2ff" vector-effect="non-scaling-stroke" d="
  M 79.02 37.52
  L 16.54 38.00"
/>
</g>
<path fill="#2667fe" d="
  M 84.75 35.46
  Q 83.87 35.67 83.27 36.49
  A 0.41 0.40 29.7 0 1 82.78 36.62
  Q 82.47 36.49 82.21 36.75
  C 71.95 8.14 34.88 3.13 17.79 28.50
  Q 16.94 27.04 15.25 27.21
  C 33.73 -0.43 73.24 4.36 84.75 35.46
  Z"
/>
<path fill="#86c2ff" d="
  M 70.01 23.53
  Q 48.11 24.81 26.24 23.32
  C 38.99 12.30 57.40 12.20 70.01 23.53
  Z"
/>
<path fill="#9ebcff" d="
  M 70.01 23.53
  L 74.71 28.75
  Q 48.37 29.12 22.01 28.27
  Q 23.90 24.75 26.24 23.32
  Q 48.11 24.81 70.01 23.53
  Z"
/>
<path fill="#823fff" d="
  M 17.79 28.50
  Q 12.75 36.20 12.31 45.46
  A 1.00 0.99 1.4 0 0 13.31 46.50
  L 82.82 46.50
  A 1.01 1.01 0.0 0 0 83.81 45.31
  L 82.21 36.75
  Q 82.47 36.49 82.78 36.62
  A 0.41 0.40 29.7 0 0 83.27 36.49
  Q 83.87 35.67 84.75 35.46
  Q 86.76 40.89 86.89 46.70
  Q 86.95 49.50 84.25 49.50
  L 12.00 49.50
  Q 9.06 49.50 9.12 46.57
  Q 9.36 36.03 15.25 27.21
  Q 16.94 27.04 17.79 28.50
  Z"
/>
<path fill="#bcb5ff" d="
  M 22.01 28.27
  Q 48.37 29.12 74.71 28.75
  Q 77.63 32.35 79.02 37.52
  L 16.54 38.00
  Q 18.39 31.97 22.01 28.27
  Z"
/>
<path fill="#d8aeff" d="
  M 79.02 37.52
  Q 80.14 39.53 80.38 42.42
  A 0.99 0.99 0.0 0 1 79.39 43.50
  L 16.69 43.50
  A 1.00 1.00 0.0 0 1 15.71 42.31
  L 16.54 38.00
  L 79.02 37.52
  Z"
/>
<rect fill="#823fff" x="9.76" y="54.00" width="76.46" height="3.00" rx="1.48"/>
<rect fill="#823fff" x="12.25" y="61.50" width="71.50" height="3.00" rx="1.32"/>
<rect fill="#b429ff" x="16.53" y="69.00" width="62.96" height="3.00" rx="1.48"/>
<rect fill="#b429ff" x="24.03" y="76.50" width="47.94" height="3.00" rx="1.48"/>
<rect fill="#b429ff" x="-12.67" y="-1.50" transform="translate(48.77,85.49) rotate(0.1)" width="25.34" height="3.00" rx="1.37"/>
</svg>
